<svg xmlns="http://www.w3.org/2000/svg" xmlns:xlink="http://www.w3.org/1999/xlink" width="13.177" height="18" viewBox="0 0 13.177 18">
  <defs>
    <clipPath id="clip-path">
      <rect id="Rectangle_286" data-name="Rectangle 286" width="13.177" height="18" fill="#f5bca4"/>
    </clipPath>
  </defs>
  <g id="Group_628" data-name="Group 628" transform="translate(0 0)" opacity="0.35">
    <g id="Group_623" data-name="Group 623" transform="translate(0 0)" clip-path="url(#clip-path)">
      <path id="Path_232" data-name="Path 232" d="M6.589,0A6.677,6.677,0,0,0,0,6.589C0,9.965,2.627,13.4,6.338,17.882a.326.326,0,0,0,.5,0C10.55,13.4,13.177,9.964,13.177,6.589A6.677,6.677,0,0,0,6.588,0Zm0,9.762a3.177,3.177,0,1,1,2.244-.931A3.175,3.175,0,0,1,6.589,9.762Z" transform="translate(0 0)" fill="#f5bca4"/>
    </g>
  </g>
</svg>
