<svg xmlns="http://www.w3.org/2000/svg" width="116.817" height="25.765" viewBox="0 0 116.817 25.765">
  <g id="MOHE_Logo" data-name="MOHE Logo" transform="translate(0 0)" opacity="0.683">
    <path id="Path_1" data-name="Path 1" d="M21.577,6.241l-8.9,3.119v4.029L21.5,10.3V25.749h3.8V4.917Z" fill="#873375"/>
    <path id="Path_2" data-name="Path 2" d="M12.623,0,4.389,3.4,9.131,4.976l3.492-1.222Z" fill="#873375"/>
    <path id="Path_3" data-name="Path 3" d="M0,4.938V25.75H3.8V10.3l8.82,3.091V9.361l-8.9-3.12L0,4.917Z" fill="#873375"/>
    <path id="Path_4" data-name="Path 4" d="M12.676,0V3.754l3.492,1.221L20.91,3.4Z" fill="#ca565a"/>
    <rect id="Rectangle_3" data-name="Rectangle 3" width="3.803" height="20.776" transform="translate(52.002 4.975)" fill="#873375"/>
    <rect id="Rectangle_4" data-name="Rectangle 4" width="3.802" height="20.776" transform="translate(30.506 4.975)" fill="#873375"/>
    <rect id="Rectangle_5" data-name="Rectangle 5" width="21.644" height="3.802" transform="translate(30.761 4.975)" fill="#873375"/>
    <rect id="Rectangle_6" data-name="Rectangle 6" width="23.446" height="3.803" transform="translate(30.506 21.948)" fill="#873375"/>
    <rect id="Rectangle_7" data-name="Rectangle 7" width="3.803" height="20.776" transform="translate(82.508 4.975)" fill="#873375"/>
    <rect id="Rectangle_8" data-name="Rectangle 8" width="3.802" height="20.776" transform="translate(61.013 4.975)" fill="#873375"/>
    <rect id="Rectangle_9" data-name="Rectangle 9" width="20.58" height="3.802" transform="translate(61.928 13.462)" fill="#873375"/>
    <rect id="Rectangle_10" data-name="Rectangle 10" width="3.802" height="20.775" transform="translate(91.519 4.96)" fill="#873375"/>
    <rect id="Rectangle_11" data-name="Rectangle 11" width="22.802" height="3.803" transform="translate(94.015 4.96)" fill="#873375"/>
    <rect id="Rectangle_12" data-name="Rectangle 12" width="25.298" height="3.802" transform="translate(91.519 13.462)" fill="#873375"/>
    <rect id="Rectangle_13" data-name="Rectangle 13" width="25.298" height="3.802" transform="translate(91.519 21.963)" fill="#873375"/>
  </g>
</svg>
