<svg xmlns="http://www.w3.org/2000/svg" xmlns:xlink="http://www.w3.org/1999/xlink" width="14" height="14" viewBox="0 0 14 14">
  <defs>
    <clipPath id="clip-path">
      <rect id="Rectangle_288" data-name="Rectangle 288" width="14" height="14" fill="#f5bca4"/>
    </clipPath>
  </defs>
  <g id="Group_284" data-name="Group 284" transform="translate(0 0)" opacity="0.35">
    <g id="Group_627" data-name="Group 627" transform="translate(0 0)" clip-path="url(#clip-path)">
      <path id="Path_234" data-name="Path 234" d="M5.382,11.247A.454.454,0,0,1,5.53,10.9a.476.476,0,0,1,.35-.14h7.638a.478.478,0,0,1,.482.482V13.5a.476.476,0,0,1-.14.35.493.493,0,0,1-.342.148H5.88a.5.5,0,0,1-.35-.148.475.475,0,0,1-.14-.35V11.286ZM3.1,10.9a.465.465,0,0,1,.14.342V13.5a.477.477,0,0,1-.14.35A.453.453,0,0,1,2.754,14H.5a.462.462,0,0,1-.35-.148A.46.46,0,0,1,0,13.5V11.247A.452.452,0,0,1,.148,10.9a.475.475,0,0,1,.35-.14H2.753A.466.466,0,0,1,3.1,10.9ZM.148,3.088A.461.461,0,0,1,0,2.738V.482A.452.452,0,0,1,.148.14.474.474,0,0,1,.5,0H2.753A.464.464,0,0,1,3.1.14a.465.465,0,0,1,.14.342V2.738a.476.476,0,0,1-.14.35.466.466,0,0,1-.342.14H.5a.476.476,0,0,1-.35-.14m0,2.427a.475.475,0,0,1,.35-.14H2.753a.478.478,0,0,1,.482.482V8.112a.465.465,0,0,1-.14.342.442.442,0,0,1-.342.156H.5a.451.451,0,0,1-.35-.156A.452.452,0,0,1,0,8.112V5.857a.453.453,0,0,1,.148-.342m13.37-.14A.478.478,0,0,1,14,5.857V8.112a.464.464,0,0,1-.14.342.442.442,0,0,1-.342.156H5.88a.451.451,0,0,1-.35-.156.464.464,0,0,1-.14-.342V5.888l-.008-.031a.454.454,0,0,1,.148-.342.475.475,0,0,1,.35-.14Zm.342-2.287a.465.465,0,0,1-.342.14v.008H5.88V3.228a.478.478,0,0,1-.49-.49V.506L5.382.482A.453.453,0,0,1,5.53.14.474.474,0,0,1,5.88,0h7.638a.464.464,0,0,1,.342.14A.464.464,0,0,1,14,.482V2.738A.474.474,0,0,1,13.86,3.088Z" transform="translate(0 0)" fill="#f5bca4" fill-rule="evenodd"/>
    </g>
  </g>
</svg>
