<svg id="Group_1584" data-name="Group 1584" xmlns="http://www.w3.org/2000/svg" xmlns:xlink="http://www.w3.org/1999/xlink" width="15.999" height="16" viewBox="0 0 15.999 16">
  <defs>
    <clipPath id="clip-path">
      <rect id="Rectangle_1541" data-name="Rectangle 1541" width="15.999" height="16" fill="#c15e6b"/>
    </clipPath>
  </defs>
  <g id="Group_1583" data-name="Group 1583" clip-path="url(#clip-path)">
    <path id="Path_16257" data-name="Path 16257" d="M8,0a8,8,0,1,0,8,8A8,8,0,0,0,8,0ZM4.3,11.506a1.111,1.111,0,0,0,.828.367,1.225,1.225,0,0,0,.887-.441h.759a1.636,1.636,0,0,1-.648.762,1.794,1.794,0,0,1-.988.29A1.863,1.863,0,0,1,3.294,10.63,1.84,1.84,0,0,1,5.126,8.8a1.806,1.806,0,0,1,1.327.563,1.644,1.644,0,0,1,.345.52H6.055a1.31,1.31,0,0,0-.475-.369,1.228,1.228,0,0,0-.475-.1,1.074,1.074,0,0,0-.81.366A1.249,1.249,0,0,0,4.3,11.506Zm4.641.642a1.106,1.106,0,0,1-.813.335,1.128,1.128,0,0,1-.8-.308,1.091,1.091,0,0,1-.348-.775h.685a.48.48,0,0,0,.135.342.471.471,0,0,0,.348.13.484.484,0,0,0,.345-.125.421.421,0,0,0,.133-.321q0-.345-.478-.52a5.367,5.367,0,0,1-.507-.2.947.947,0,0,1-.236-.175A1,1,0,0,1,7.412,9.1a1.059,1.059,0,0,1,1.46-.011,1.061,1.061,0,0,1,.321.722h-.68q-.032-.4-.388-.4a.364.364,0,0,0-.265.1.35.35,0,0,0-.1.263.331.331,0,0,0,.117.271,1.787,1.787,0,0,0,.478.223,1.7,1.7,0,0,1,.605.324.975.975,0,0,1,.319.743,1.1,1.1,0,0,1-.334.812Zm2.379.265h-.536L9.406,8.873h.69l.956,2.692.956-2.692h.685ZM8.2,1.067A6.937,6.937,0,0,1,14.938,8c0,.017,0,.034,0,.051A8,8,0,0,1,8.2,1.067Z" fill="#c15e6b"/>
  </g>
</svg>
