<svg id="Group_1586" data-name="Group 1586" xmlns="http://www.w3.org/2000/svg" xmlns:xlink="http://www.w3.org/1999/xlink" width="16.94" height="16" viewBox="0 0 16.94 16">
  <defs>
    <clipPath id="clip-path">
      <rect id="Rectangle_1542" data-name="Rectangle 1542" width="16.94" height="16" fill="#c15e6b"/>
    </clipPath>
  </defs>
  <g id="Group_1585" data-name="Group 1585" clip-path="url(#clip-path)">
    <path id="Path_16258" data-name="Path 16258" d="M9.667,13.748V0H8.556C5.705.514,2.861.991,0,1.485v13c2.815.5,5.667.994,8.5,1.509H9.659V13.748ZM5.473,10.894a21.953,21.953,0,0,1-.932-2.333c-.258.755-.613,1.465-.9,2.2-.407,0-.814-.023-1.221-.039.476-.935.937-1.878,1.429-2.8-.417-.958-.878-1.9-1.309-2.846l1.231-.07c.276.726.58,1.445.809,2.19.258-.791.611-1.546.925-2.3q.631-.044,1.265-.077-.742,1.525-1.5,3.057c.515,1.03,1.03,2.073,1.546,3.114-.448-.036-.894-.064-1.342-.1Z" transform="translate(0 0.001)" fill="#c15e6b"/>
    <path id="Path_16259" data-name="Path 16259" d="M96.4,16.952v.987h1.97v1.455H96.4v.8h1.97v1.455H96.4v.8h1.97V23.9H96.4v.8h1.97V26.14H96.4v.845h1.97v1.409H96.4v.986h6.8V16.952Zm5.3,11.452H98.841V26.995h2.864Zm0-2.254H98.841V24.695h2.864Zm0-2.254H98.841V22.444h2.864Zm0-2.254H98.841V20.19h2.864Zm0-2.254H98.841v-1.45h2.864Z" transform="translate(-86.267 -15.17)" fill="#c15e6b"/>
  </g>
</svg>
