<svg xmlns="http://www.w3.org/2000/svg" xmlns:xlink="http://www.w3.org/1999/xlink" width="18" height="17.995" viewBox="0 0 18 17.995">
  <defs>
    <clipPath id="clip-path">
      <rect id="Rectangle_1492" data-name="Rectangle 1492" width="18" height="17.995" fill="#f5bca4"/>
    </clipPath>
  </defs>
  <g id="Group_632" data-name="Group 632" transform="translate(0 0)" opacity="0.35">
    <g id="Group_631" data-name="Group 631" transform="translate(0 0)" clip-path="url(#clip-path)">
      <path id="Path_415" data-name="Path 415" d="M17.8,7.584c-.056-.028-.868-.252-1.483-.42a7.939,7.939,0,0,0-.868-2.071L16.2,3.75a.259.259,0,0,0-.056-.336L14.58,1.847a.3.3,0,0,0-.336-.056l-1.371.755A7.008,7.008,0,0,0,10.8,1.707L10.382.2A.278.278,0,0,0,10.1,0H7.892a.3.3,0,0,0-.28.2l-.42,1.511a7.41,7.41,0,0,0-2.071.868L3.75,1.819a.26.26,0,0,0-.336.056L1.847,3.442a.3.3,0,0,0-.056.336l.755,1.344a7.913,7.913,0,0,0-.867,2.071L.2,7.612a.278.278,0,0,0-.2.28V10.1a.3.3,0,0,0,.2.28l1.483.42a7.913,7.913,0,0,0,.867,2.071l-.755,1.344a.258.258,0,0,0,.056.336L3.414,16.12a.3.3,0,0,0,.336.056l1.371-.756a7.935,7.935,0,0,0,2.071.868l.42,1.511a.278.278,0,0,0,.28.2H10.1a.337.337,0,0,0,.28-.2l.42-1.511a7.078,7.078,0,0,0,2.071-.868l1.371.756a.3.3,0,0,0,.336-.056l1.567-1.568a.3.3,0,0,0,.056-.336l-.756-1.344a7.931,7.931,0,0,0,.868-2.071l1.483-.42a.278.278,0,0,0,.2-.28V7.92C18.023,7.724,17.939,7.612,17.8,7.584ZM9.067,13.433a4.478,4.478,0,1,1,4.478-4.478A4.491,4.491,0,0,1,9.067,13.433Z" transform="translate(0 0)" fill="#f5bca4"/>
    </g>
  </g>
</svg>
