<?xml version="1.0" encoding="utf-8"?>
<!-- Generator: Adobe Illustrator 26.0.2, SVG Export Plug-In . SVG Version: 6.00 Build 0)  -->
<svg version="1.1" id="Layer_1" xmlns="http://www.w3.org/2000/svg" xmlns:xlink="http://www.w3.org/1999/xlink" x="0px" y="0px"
	 viewBox="0 0 542.8 137.1" style="enable-background:new 0 0 542.8 137.1;" xml:space="preserve">
<style type="text/css">
	.st0{fill:none;}
	.st1{fill:#5F5F5D;}
	.st2{fill:#12100C;}
	.st3{fill:none;stroke:#5F5F5D;stroke-width:1.7791;stroke-miterlimit:10;}
	.st4{fill-rule:evenodd;clip-rule:evenodd;fill:#5F5F5D;}
	.st5{fill-rule:evenodd;clip-rule:evenodd;fill:#00914E;}
	.st6{fill:#61A60E;}
</style>
<g>
	<path class="st0" d="M205.3,54.7c-0.5-0.6-1.1-1.1-1.8-1.3c-0.3-0.1-0.6-0.2-1-0.3c-0.3-0.1-0.6-0.1-0.9-0.1
		c-0.5,0-0.9,0.1-1.4,0.3c-0.5,0.2-0.9,0.5-1.2,0.8c-0.4,0.3-0.7,0.7-0.9,1.2c-0.2,0.5-0.3,0.9-0.3,1.4c0,0.7,0.3,1.4,0.8,2.1
		c0.5,0.7,1.4,1.4,2.7,2h1.4h4.8c-0.1-1.5-0.3-2.7-0.7-3.7C206.3,56.1,205.8,55.3,205.3,54.7z"/>
	<path class="st0" d="M141.3,55.2c-0.3,0.1-0.6,0.2-0.9,0.4c-0.7,0.4-1.4,0.8-1.9,1.2c-0.5,0.5-1,0.9-1.3,1.4
		c-0.3,0.5-0.6,0.9-0.8,1.4c-0.2,0.5-0.3,0.9-0.4,1.2h5.3h5.3v-6.7c-1.3,0.1-2.5,0.3-3.5,0.5C142.4,54.8,141.8,55,141.3,55.2z"/>
	<path class="st0" d="M167.2,56.8c0-0.6-0.1-1.1-0.3-1.7c-0.2-0.6-0.6-1.1-1-1.5c-0.4-0.4-1-0.8-1.6-1.1c-0.6-0.3-1.3-0.4-2.1-0.4
		l-0.1,0c-0.8,0-1.5,0.2-2.1,0.5c-0.7,0.3-1.3,0.8-1.8,1.4c-0.3,0.3-0.5,0.6-0.6,1c-0.2,0.4-0.3,0.8-0.4,1.2
		c-0.1,0.4-0.1,0.9-0.2,1.3c0,0.5-0.1,0.9-0.1,1.4l0,2h3c0.3,0,0.6,0,0.9,0c0.3,0,0.5,0,0.7,0c0.2,0,0.4,0,0.5,0l0.1,0
		c0.2,0,0.4,0,0.6-0.1c0.8-0.1,1.5-0.3,2-0.5c0.6-0.2,1-0.5,1.4-0.9c0.4-0.4,0.6-0.8,0.8-1.2C167.1,57.7,167.2,57.2,167.2,56.8z"/>
	<path class="st0" d="M333,57.1c0-0.7-0.1-1.3-0.4-1.9c-0.3-0.6-0.6-1.1-1.1-1.6c-0.5-0.5-1-0.8-1.6-1.1c-0.6-0.3-1.3-0.4-2-0.4h0
		c-0.7,0-1.4,0.1-2,0.4c-0.6,0.3-1.2,0.6-1.6,1.1c-0.5,0.5-0.8,1-1.1,1.6c-0.3,0.6-0.4,1.3-0.4,1.9c0,0.7,0.1,1.3,0.4,1.9
		c0.3,0.6,0.6,1.1,1.1,1.6c0.5,0.5,1,0.8,1.6,1.1c0.6,0.3,1.3,0.4,2,0.4h0c0.7,0,1.4-0.1,2-0.4c0.6-0.3,1.2-0.6,1.6-1.1
		c0.5-0.5,0.8-1,1.1-1.6C332.8,58.4,333,57.7,333,57.1z"/>
	<path class="st0" d="M443.5,60.8v-6.7c-1.3,0.1-2.5,0.3-3.5,0.5c-0.6,0.2-1.2,0.3-1.8,0.6c-0.3,0.1-0.6,0.2-0.9,0.4
		c-0.7,0.4-1.4,0.8-1.9,1.2c-0.5,0.5-1,0.9-1.3,1.4c-0.3,0.5-0.6,0.9-0.8,1.4c-0.2,0.5-0.3,0.9-0.4,1.2h5.3H443.5z"/>
	<path class="st0" d="M235.2,55.5c-0.5-0.5-1-0.8-1.7-1.1c-0.6-0.3-1.3-0.4-2-0.4h0c-0.7,0-1.4,0.1-2,0.4c-0.6,0.3-1.2,0.6-1.6,1.1
		c-0.5,0.5-0.8,1-1.1,1.6c-0.3,0.6-0.4,1.3-0.4,1.9c0,0.7,0.1,1.3,0.4,1.9c0.3,0.6,0.6,1.1,1.1,1.6c0.5,0.5,1,0.8,1.6,1.1
		c0.6,0.3,1.3,0.4,2,0.4h0c0.7,0,1.4-0.1,2-0.4c0.6-0.3,1.2-0.6,1.6-1.1c0.5-0.5,0.8-1,1.1-1.6c0.3-0.6,0.4-1.3,0.4-1.9
		c0-0.7-0.1-1.3-0.4-1.9C236,56.5,235.7,56,235.2,55.5z"/>
	<path class="st1" d="M509.5,86.6l-3,9.6l-3.1-9.6h-3.7l5,13.6c-0.2,0.8-0.5,1.4-0.9,1.9c-0.4,0.5-1,0.7-1.8,0.7
		c-0.4,0-0.9-0.1-1.5-0.2l0.3,2.8c0.6,0.1,1.3,0.2,2,0.2c0.7,0,1.2-0.1,1.8-0.2c0.5-0.1,1-0.3,1.3-0.6c0.4-0.3,0.7-0.6,0.9-1
		c0.3-0.4,0.6-1,0.9-1.8l0.8-2.4l4.6-13.1H509.5z"/>
	<path class="st1" d="M497,87.8c-0.3-0.4-0.8-0.8-1.4-1.1c-0.6-0.3-1.3-0.4-2.1-0.4c-1.7,0-3.2,0.8-4.3,2.3v-2H486v13.6h3.4V94
		c0-1.5,0.1-2.6,0.3-3.1c0.2-0.6,0.5-1,1-1.4c0.5-0.3,1-0.5,1.6-0.5c0.5,0,0.9,0.1,1.2,0.4c0.3,0.2,0.6,0.6,0.7,1
		c0.1,0.4,0.2,1.4,0.2,2.8v6.9h3.4v-8.4c0-1-0.1-1.8-0.2-2.4C497.5,88.8,497.3,88.3,497,87.8z"/>
	<path class="st1" d="M482.5,95.7l0-4.2c0-1.6-0.2-2.6-0.5-3.2c-0.3-0.6-0.8-1.1-1.6-1.4c-0.8-0.4-1.9-0.6-3.4-0.6
		c-1.7,0-3,0.3-3.8,0.9c-0.9,0.6-1.5,1.6-1.8,2.9l3.1,0.6c0.2-0.6,0.5-1.1,0.8-1.3c0.3-0.3,0.8-0.4,1.4-0.4c0.9,0,1.5,0.1,1.9,0.4
		c0.3,0.3,0.5,0.8,0.5,1.5v0.4c-0.6,0.3-1.7,0.6-3.3,0.9c-1.2,0.2-2.1,0.5-2.7,0.8c-0.6,0.3-1.1,0.8-1.5,1.4c-0.4,0.6-0.5,1.3-0.5,2
		c0,1.2,0.4,2.1,1.2,2.9c0.8,0.8,1.8,1.1,3.2,1.1c0.8,0,1.5-0.1,2.1-0.4c0.7-0.3,1.3-0.7,1.9-1.3c0,0.1,0.1,0.2,0.1,0.4
		c0.1,0.5,0.2,0.8,0.3,1.1h3.4c-0.3-0.6-0.5-1.3-0.6-1.8C482.6,97.8,482.5,96.9,482.5,95.7z M479.2,94.4c0,0.9,0,1.4-0.1,1.7
		c-0.1,0.5-0.4,0.9-0.8,1.2c-0.6,0.4-1.2,0.6-1.8,0.6c-0.6,0-1-0.2-1.4-0.5c-0.4-0.4-0.5-0.8-0.5-1.3c0-0.5,0.2-0.9,0.7-1.3
		c0.3-0.2,0.9-0.4,1.9-0.6c1-0.2,1.7-0.4,2.1-0.5V94.4z"/>
	<path class="st1" d="M464.5,86.3c-0.9,0-1.7,0.2-2.4,0.6c-0.7,0.4-1.3,1-1.7,1.7v-2h-3.2v18.7h3.4v-6.8c0.6,0.7,1.3,1.2,1.8,1.5
		c0.6,0.3,1.2,0.4,2,0.4c1.5,0,2.8-0.6,3.9-1.9c1.1-1.3,1.6-3,1.6-5.3c0-2.2-0.5-3.9-1.6-5.2C467.3,86.9,466.1,86.3,464.5,86.3z
		 M465.7,96.6c-0.5,0.7-1.2,1-2,1c-0.8,0-1.5-0.4-2.1-1.1c-0.6-0.7-0.9-1.9-0.9-3.4c0-1.3,0.3-2.3,0.8-3c0.6-0.7,1.3-1,2.1-1
		c0.8,0,1.5,0.3,2,1c0.5,0.7,0.8,1.7,0.8,3.2C466.5,94.9,466.2,96,465.7,96.6z"/>
	<path class="st1" d="M452.1,86.9c-0.7-0.4-1.5-0.6-2.4-0.6c-0.8,0-1.5,0.2-2.1,0.5c-0.7,0.4-1.3,0.9-1.9,1.6
		c-0.4-0.7-0.9-1.3-1.5-1.6c-0.6-0.4-1.3-0.5-2.2-0.5c-1.6,0-2.9,0.7-4.1,2.2v-1.8h-3.2v13.6h3.4v-6.6c0-1.3,0.1-2.2,0.3-2.8
		c0.2-0.6,0.5-1,0.9-1.3c0.4-0.3,0.9-0.4,1.4-0.4c0.4,0,0.8,0.1,1.1,0.3c0.3,0.2,0.4,0.5,0.6,0.9c0.1,0.4,0.2,1.2,0.2,2.6v7.4h3.4
		v-6.5c0-1.3,0.1-2.2,0.3-2.8c0.2-0.6,0.5-1,0.9-1.3c0.4-0.3,0.9-0.5,1.4-0.5c0.7,0,1.2,0.3,1.5,0.8c0.2,0.4,0.4,1.3,0.4,2.6v7.8
		h3.4v-8.7c0-1.3-0.1-2.2-0.4-2.8C453.2,87.9,452.8,87.3,452.1,86.9z"/>
	<path class="st1" d="M425.6,86.3c-1.3,0-2.4,0.3-3.5,0.9c-1,0.6-1.8,1.4-2.4,2.6c-0.6,1.1-0.8,2.3-0.8,3.5c0,1.6,0.3,2.9,0.8,4
		c0.6,1.1,1.4,1.9,2.5,2.5c1.1,0.6,2.2,0.8,3.4,0.8c1.9,0,3.5-0.7,4.8-2c1.3-1.4,1.9-3.1,1.9-5.1c0-2-0.6-3.7-1.9-5.1
		C429.2,87,427.6,86.3,425.6,86.3z M427.9,96.5c-0.6,0.7-1.4,1.1-2.3,1.1c-0.9,0-1.7-0.4-2.3-1.1c-0.6-0.7-0.9-1.7-0.9-3.1
		c0-1.3,0.3-2.4,0.9-3.1c0.6-0.7,1.4-1.1,2.3-1.1c0.9,0,1.7,0.4,2.3,1.1c0.6,0.7,0.9,1.7,0.9,3.1C428.8,94.7,428.5,95.8,427.9,96.5z
		"/>
	<path class="st1" d="M411.6,96.3c-0.7,0.6-1.5,1-2.5,1c-1.3,0-2.4-0.5-3.2-1.5c-0.8-1-1.2-2.7-1.2-5.1c0-2.2,0.4-3.8,1.2-4.8
		c0.8-1,1.9-1.5,3.2-1.5c1,0,1.8,0.3,2.5,0.8c0.7,0.6,1.1,1.3,1.3,2.3l3.6-0.9c-0.4-1.5-1-2.7-1.8-3.4c-1.4-1.4-3.2-2-5.4-2
		c-2.5,0-4.6,0.9-6.1,2.6c-1.5,1.7-2.3,4.1-2.3,7.3c0,2.9,0.8,5.3,2.3,7c1.5,1.7,3.5,2.5,5.9,2.5c1.9,0,3.5-0.5,4.8-1.5
		c1.3-1,2.2-2.5,2.7-4.6l-3.5-1.2C412.8,94.7,412.3,95.7,411.6,96.3z"/>
	<path class="st1" d="M386.6,91.7c-1.8-0.4-2.9-0.8-3.2-1c-0.2-0.2-0.3-0.4-0.3-0.6c0-0.3,0.1-0.5,0.4-0.7c0.4-0.3,1-0.4,2-0.4
		c0.7,0,1.3,0.1,1.7,0.4c0.4,0.3,0.7,0.7,0.8,1.2l3.2-0.6c-0.3-1.2-0.9-2.1-1.8-2.7c-0.9-0.6-2.2-0.9-4-0.9c-1.9,0-3.3,0.4-4.1,1.2
		c-0.9,0.8-1.3,1.8-1.3,3c0,1.3,0.5,2.3,1.5,3.1c0.7,0.5,2.5,1.1,5.3,1.7c0.6,0.1,1,0.3,1.2,0.5c0.2,0.2,0.2,0.4,0.2,0.7
		c0,0.4-0.2,0.7-0.5,1c-0.4,0.3-1.1,0.5-2,0.5c-0.8,0-1.4-0.2-1.9-0.5c-0.5-0.4-0.7-0.9-0.9-1.6l-3.5,0.5c0.3,1.3,1,2.3,2,3.1
		c1,0.8,2.4,1.1,4.2,1.1c2,0,3.4-0.4,4.4-1.3c1-0.9,1.5-2,1.5-3.2c0-1.1-0.4-2-1.1-2.7C389.7,92.6,388.5,92.1,386.6,91.7z"/>
	<path class="st1" d="M373.9,97c-0.4,0.4-1,0.6-1.6,0.6c-0.9,0-1.6-0.3-2.1-1c-0.5-0.7-0.8-1.8-0.8-3.4c0-1.4,0.3-2.5,0.8-3.1
		c0.5-0.6,1.2-0.9,2.1-0.9c0.6,0,1.2,0.2,1.6,0.5c0.4,0.4,0.7,0.9,0.8,1.6l3.4-0.6c-0.4-1.5-1.1-2.5-2-3.3c-0.9-0.7-2.2-1.1-3.8-1.1
		c-1.9,0-3.5,0.6-4.6,1.9c-1.1,1.2-1.7,3-1.7,5.2c0,2.2,0.6,4,1.7,5.2c1.1,1.3,2.7,1.9,4.6,1.9c1.7,0,3-0.4,4-1.2c1-0.8,1.7-2,2-3.7
		l-3.4-0.6C374.6,95.9,374.3,96.6,373.9,97z"/>
	<rect x="359.6" y="86.6" class="st1" width="3.4" height="13.6"/>
	<rect x="359.6" y="81.4" class="st2" width="3.4" height="3.3"/>
	<path class="st1" d="M355.3,87.8c-0.3-0.4-0.8-0.8-1.4-1.1c-0.6-0.3-1.3-0.4-2.1-0.4c-1.7,0-3.2,0.8-4.3,2.3v-2h-3.2v13.6h3.4V94
		c0-1.5,0.1-2.6,0.3-3.1c0.2-0.6,0.5-1,1-1.4c0.5-0.3,1-0.5,1.6-0.5c0.5,0,0.9,0.1,1.2,0.4c0.3,0.2,0.6,0.6,0.7,1
		c0.1,0.4,0.2,1.4,0.2,2.8v6.9h3.4v-8.4c0-1-0.1-1.8-0.2-2.4C355.8,88.8,355.6,88.3,355.3,87.8z"/>
	<path class="st1" d="M334.9,86.3c-1.3,0-2.4,0.3-3.5,0.9c-1,0.6-1.8,1.4-2.4,2.6c-0.6,1.1-0.8,2.3-0.8,3.5c0,1.6,0.3,2.9,0.8,4
		c0.6,1.1,1.4,1.9,2.5,2.5c1.1,0.6,2.2,0.8,3.4,0.8c1.9,0,3.5-0.7,4.8-2c1.3-1.4,1.9-3.1,1.9-5.1c0-2-0.6-3.7-1.9-5.1
		C338.5,87,336.8,86.3,334.9,86.3z M337.1,96.5c-0.6,0.7-1.4,1.1-2.3,1.1c-0.9,0-1.7-0.4-2.3-1.1c-0.6-0.7-0.9-1.7-0.9-3.1
		c0-1.3,0.3-2.4,0.9-3.1c0.6-0.7,1.4-1.1,2.3-1.1c0.9,0,1.7,0.4,2.3,1.1c0.6,0.7,0.9,1.7,0.9,3.1C338.1,94.7,337.8,95.8,337.1,96.5z
		"/>
	<path class="st1" d="M323.7,86.7c-0.4,0.3-0.9,0.9-1.5,1.8v-1.9H319v13.6h3.4V96c0-2.3,0.1-3.8,0.3-4.5c0.2-0.7,0.5-1.2,0.8-1.5
		c0.3-0.3,0.7-0.4,1.2-0.4c0.5,0,1,0.2,1.6,0.6l1.1-3.1c-0.7-0.5-1.5-0.7-2.3-0.7C324.6,86.3,324.2,86.4,323.7,86.7z"/>
	<path class="st1" d="M315.4,97.5c-0.2,0-0.4-0.1-0.6-0.2c-0.2-0.1-0.3-0.3-0.3-0.5c0-0.2-0.1-0.8-0.1-1.9v-5.5h2.4v-2.9h-2.4v-4.8
		l-3.5,2.1v2.7h-1.6v2.9h1.6v5.9c0,1.3,0,2.1,0.1,2.5c0.1,0.6,0.3,1.1,0.5,1.4c0.2,0.3,0.6,0.6,1.1,0.8c0.5,0.2,1.1,0.3,1.7,0.3
		c1,0,1.9-0.2,2.7-0.5l-0.3-2.8C316.2,97.4,315.7,97.5,315.4,97.5z"/>
	<path class="st1" d="M304.1,97c-0.4,0.4-1,0.6-1.6,0.6c-0.9,0-1.6-0.3-2.1-1c-0.5-0.7-0.8-1.8-0.8-3.4c0-1.4,0.3-2.5,0.8-3.1
		c0.5-0.6,1.2-0.9,2.1-0.9c0.6,0,1.2,0.2,1.6,0.5c0.4,0.4,0.7,0.9,0.8,1.6l3.4-0.6c-0.4-1.5-1.1-2.5-2-3.3c-0.9-0.7-2.2-1.1-3.8-1.1
		c-1.9,0-3.5,0.6-4.6,1.9c-1.1,1.2-1.7,3-1.7,5.2c0,2.2,0.6,4,1.7,5.2c1.1,1.3,2.7,1.9,4.6,1.9c1.7,0,3-0.4,4-1.2c1-0.8,1.7-2,2-3.7
		L305,95C304.8,95.9,304.5,96.6,304.1,97z"/>
	<path class="st1" d="M292.4,88.3c-1.1-1.3-2.7-2-4.6-2c-1.7,0-3.2,0.6-4.3,1.9c-1.1,1.3-1.7,3-1.7,5.3c0,1.9,0.4,3.4,1.3,4.7
		c1.1,1.5,2.8,2.3,5,2.3c1.4,0,2.6-0.3,3.6-1c1-0.7,1.6-1.7,2.1-3l-3.4-0.6c-0.2,0.7-0.5,1.2-0.8,1.5c-0.4,0.3-0.8,0.5-1.4,0.5
		c-0.8,0-1.5-0.3-2-0.9c-0.5-0.6-0.8-1.4-0.8-2.5h8.6C294.1,91.7,293.5,89.6,292.4,88.3z M285.5,92.2c0-1,0.2-1.8,0.7-2.3
		c0.5-0.6,1.1-0.9,1.9-0.9c0.7,0,1.3,0.3,1.8,0.8c0.5,0.5,0.7,1.3,0.8,2.4H285.5z"/>
	<rect x="275.9" y="81.4" class="st1" width="3.4" height="18.7"/>
	<polygon class="st1" points="262.8,91.9 271.8,91.9 271.8,88.8 262.8,88.8 262.8,84.6 272.5,84.6 272.5,81.4 259.2,81.4 
		259.2,100.2 272.8,100.2 272.8,97 262.8,97 	"/>
	<path class="st1" d="M245.3,88.2c-1.1-1.3-2.3-1.9-3.8-1.9c-1.6,0-2.9,0.6-3.9,1.8c-1,1.2-1.6,2.9-1.6,5.2c0,2.2,0.5,4,1.6,5.3
		c1.1,1.3,2.3,1.9,3.8,1.9c0.7,0,1.5-0.2,2.2-0.6c0.7-0.4,1.4-1,1.9-1.7v2h3.2V81.4h-3.4V88.2z M244.5,96.6c-0.6,0.7-1.2,1.1-2,1.1
		c-1,0-1.8-0.5-2.3-1.4c-0.4-0.6-0.6-1.7-0.6-3.1c0-1.3,0.3-2.4,0.8-3c0.6-0.7,1.2-1,2.1-1c0.8,0,1.5,0.3,2.1,1
		c0.5,0.7,0.8,1.8,0.8,3.4C245.3,94.8,245,95.9,244.5,96.6z"/>
	<path class="st1" d="M232.4,88.3c-1.1-1.3-2.7-2-4.6-2c-1.7,0-3.2,0.6-4.3,1.9c-1.1,1.3-1.7,3-1.7,5.3c0,1.9,0.4,3.4,1.3,4.7
		c1.1,1.5,2.8,2.3,5,2.3c1.4,0,2.6-0.3,3.6-1c1-0.7,1.6-1.7,2.1-3l-3.4-0.6c-0.2,0.7-0.5,1.2-0.8,1.5c-0.4,0.3-0.8,0.5-1.4,0.5
		c-0.8,0-1.5-0.3-2-0.9c-0.5-0.6-0.8-1.4-0.8-2.5h8.6C234.1,91.7,233.5,89.6,232.4,88.3z M225.4,92.2c0-1,0.2-1.8,0.7-2.3
		c0.5-0.6,1.1-0.9,1.9-0.9c0.7,0,1.3,0.3,1.8,0.8c0.5,0.5,0.7,1.3,0.8,2.4H225.4z"/>
	<path class="st1" d="M216.1,97c-0.4,0.4-1,0.6-1.6,0.6c-0.9,0-1.6-0.3-2.1-1c-0.5-0.7-0.8-1.8-0.8-3.4c0-1.4,0.3-2.5,0.8-3.1
		c0.5-0.6,1.2-0.9,2.1-0.9c0.6,0,1.2,0.2,1.6,0.5c0.4,0.4,0.7,0.9,0.8,1.6l3.4-0.6c-0.4-1.5-1.1-2.5-2-3.3c-0.9-0.7-2.2-1.1-3.8-1.1
		c-1.9,0-3.5,0.6-4.6,1.9c-1.1,1.2-1.7,3-1.7,5.2c0,2.2,0.6,4,1.7,5.2c1.1,1.3,2.6,1.9,4.6,1.9c1.7,0,3-0.4,4-1.2c1-0.8,1.7-2,2-3.7
		L217,95C216.8,95.9,216.6,96.6,216.1,97z"/>
	<path class="st1" d="M204.5,87.8c-0.3-0.4-0.8-0.8-1.4-1.1c-0.6-0.3-1.3-0.4-2.1-0.4c-1.7,0-3.2,0.8-4.3,2.3v-2h-3.2v13.6h3.4V94
		c0-1.5,0.1-2.6,0.3-3.1c0.2-0.6,0.5-1,1-1.4c0.5-0.3,1-0.5,1.6-0.5c0.5,0,0.9,0.1,1.2,0.4c0.3,0.2,0.6,0.6,0.7,1
		c0.1,0.4,0.2,1.4,0.2,2.8v6.9h3.4v-8.4c0-1-0.1-1.8-0.2-2.4C205.1,88.8,204.8,88.3,204.5,87.8z"/>
	<path class="st1" d="M190.1,95.7l0-4.2c0-1.6-0.2-2.6-0.5-3.2c-0.3-0.6-0.8-1.1-1.6-1.4c-0.8-0.4-1.9-0.6-3.4-0.6
		c-1.7,0-3,0.3-3.8,0.9c-0.9,0.6-1.5,1.6-1.8,2.9l3.1,0.6c0.2-0.6,0.5-1.1,0.8-1.3c0.3-0.3,0.8-0.4,1.4-0.4c0.9,0,1.5,0.1,1.9,0.4
		c0.3,0.3,0.5,0.8,0.5,1.5v0.4c-0.6,0.3-1.7,0.6-3.3,0.9c-1.2,0.2-2.1,0.5-2.7,0.8c-0.6,0.3-1.1,0.8-1.5,1.4c-0.4,0.6-0.5,1.3-0.5,2
		c0,1.2,0.4,2.1,1.2,2.9c0.8,0.8,1.8,1.1,3.2,1.1c0.8,0,1.5-0.1,2.1-0.4c0.7-0.3,1.3-0.7,1.9-1.3c0,0.1,0.1,0.2,0.1,0.4
		c0.1,0.5,0.2,0.8,0.3,1.1h3.4c-0.3-0.6-0.5-1.3-0.6-1.8C190.1,97.8,190.1,96.9,190.1,95.7z M186.7,94.4c0,0.9,0,1.4-0.1,1.7
		c-0.1,0.5-0.4,0.9-0.8,1.2c-0.6,0.4-1.2,0.6-1.8,0.6c-0.6,0-1-0.2-1.4-0.5c-0.4-0.4-0.5-0.8-0.5-1.3c0-0.5,0.2-0.9,0.7-1.3
		c0.3-0.2,0.9-0.4,1.9-0.6c1-0.2,1.7-0.4,2.1-0.5V94.4z"/>
	<path class="st1" d="M171.4,93.5c-0.1,0.4-0.3,0.8-0.4,1.1c0,0.2-0.2,0.6-0.4,1.2l-0.7-2.3l-2.5-6.9h-3.6l5.2,13.6h3.1l5.2-13.6
		h-3.5L171.4,93.5z"/>
	<path class="st1" d="M158.7,88.2c-1.1-1.3-2.3-1.9-3.8-1.9c-1.6,0-2.9,0.6-3.9,1.8c-1,1.2-1.6,2.9-1.6,5.2c0,2.2,0.5,4,1.6,5.3
		c1.1,1.3,2.3,1.9,3.8,1.9c0.7,0,1.5-0.2,2.2-0.6c0.7-0.4,1.4-1,1.9-1.7v2h3.2V81.4h-3.4V88.2z M157.9,96.6c-0.6,0.7-1.2,1.1-2,1.1
		c-1,0-1.8-0.5-2.3-1.4c-0.4-0.6-0.6-1.7-0.6-3.1c0-1.3,0.3-2.4,0.8-3c0.6-0.7,1.2-1,2.1-1c0.8,0,1.5,0.3,2.1,1
		c0.5,0.7,0.8,1.8,0.8,3.4C158.8,94.8,158.5,95.9,157.9,96.6z"/>
	<path class="st1" d="M137.3,81.4l-7,18.7h3.9l1.5-4.3h7.2l1.6,4.3h4l-7.2-18.7H137.3z M136.8,92.8l2.4-7l2.5,7H136.8z"/>
	<path class="st1" d="M473,64.1l0.2-1.5c0,0,0-0.2,0-0.5c0-0.3,0-0.8,0-1.3c0-0.5-0.1-1.1-0.3-1.8c-0.1-0.7-0.3-1.4-0.6-2.1
		c-0.3-0.7-0.7-1.4-1.2-2.1c-0.5-0.7-1.2-1.3-1.9-1.8c-0.8-0.5-1.7-1-2.9-1.3c-1.1-0.3-2.4-0.5-3.9-0.5h-7.4
		c0.8-1.2,1.7-2.2,2.7-2.9c1-0.7,2.1-1.3,3.2-1.7c0.7-0.3,1.5-0.5,2.3-0.6c0.8-0.1,1.5-0.2,2.2-0.3c0.7-0.1,1.4-0.1,2.1-0.1
		c0.7,0,1.2,0,1.8,0v-3.3c-0.6,0-1.2,0-1.9,0c-0.7,0-1.5,0.1-2.3,0.1c-0.8,0.1-1.6,0.2-2.5,0.4c-0.9,0.2-1.7,0.4-2.6,0.7
		c-0.9,0.3-1.7,0.7-2.5,1.2c-0.8,0.5-1.6,1-2.4,1.7c-0.8,0.7-1.4,1.4-2.1,2.3c-0.6,0.9-1.2,1.9-1.7,3.1c-0.1,0.4-0.1,0.7,0,1.1
		c0.1,0.3,0.2,0.6,0.4,0.9c0.2,0.3,0.4,0.5,0.7,0.6c0.3,0.2,0.7,0.2,1.1,0.2v0h8.9c1,0,2,0.1,2.7,0.3c0.8,0.2,1.4,0.5,2,0.8
		c0.6,0.3,1,0.7,1.4,1.1c0.4,0.4,0.7,0.9,0.9,1.3c0.2,0.5,0.4,0.9,0.5,1.3c0.1,0.4,0.2,0.8,0.2,1.2h-21.4v3.3H473z"/>
	<path class="st1" d="M439.3,47.3c0.2,0.2,0.3,0.3,0.5,0.4c0.2,0.1,0.4,0.1,0.6,0.1c0.2,0,0.4,0,0.6-0.1c0.2-0.1,0.4-0.2,0.5-0.4
		c0.1-0.2,0.3-0.4,0.3-0.6c0.1-0.2,0.1-0.4,0.1-0.7c0-0.5-0.2-1-0.5-1.3c-0.3-0.3-0.7-0.5-1.2-0.5c-0.5,0-0.9,0.2-1.2,0.5
		c-0.3,0.3-0.5,0.8-0.5,1.3c0,0.2,0,0.5,0.1,0.7C439,46.9,439.1,47.1,439.3,47.3z"/>
	<path class="st1" d="M435.1,47.3c0.2,0.2,0.3,0.3,0.5,0.4c0.2,0.1,0.4,0.1,0.6,0.1c0.2,0,0.4,0,0.6-0.1c0.2-0.1,0.4-0.2,0.5-0.4
		c0.1-0.2,0.3-0.4,0.3-0.6c0.1-0.2,0.1-0.4,0.1-0.7c0-0.5-0.2-1-0.5-1.3c-0.3-0.3-0.7-0.5-1.2-0.5c-0.5,0-0.9,0.2-1.2,0.5
		c-0.3,0.3-0.5,0.8-0.5,1.3c0,0.2,0,0.5,0.1,0.7C434.9,46.9,435,47.1,435.1,47.3z"/>
	<rect x="416.8" y="42.4" class="st1" width="3" height="21.7"/>
	<path class="st1" d="M397.6,68.7c-0.2-0.1-0.3-0.3-0.3-0.5c0-0.2,0.1-0.4,0.2-0.5c0.2-0.2,0.3-0.2,0.6-0.2h1.6v-1.3
		c-0.3,0-0.5,0-0.8,0c-0.3,0-0.6,0-0.8,0c-0.3,0-0.6,0.1-0.8,0.2c-0.2,0.1-0.4,0.3-0.6,0.5c-0.2,0.2-0.3,0.4-0.4,0.6
		c-0.1,0.2-0.1,0.5-0.1,0.7c0,0.2,0,0.4,0.1,0.6h-0.8v1.3h5.1v-1.3h-2.1C398.1,68.9,397.8,68.8,397.6,68.7z"/>
	<path class="st1" d="M400.1,48.8c0.6,0.5,1.2,1,1.7,1.6c0.5,0.6,1,1.2,1.4,1.9c0.7,1.2,1.2,2.5,1.7,3.9c0.4,1.4,0.8,3,1,4.6h-0.1
		l-9.2,0v3.3h9.2c1,0,2-0.3,2.9-0.8c0.9-0.5,1.7-1.2,2.4-2c0.7-0.9,1.2-1.9,1.6-3c0.4-1.1,0.6-2.4,0.6-3.7l0-12.3h-3v12.3
		c0,1-0.2,1.9-0.5,2.7c-0.3,0.8-0.7,1.5-1.2,2.1c-0.3-1.7-0.7-3.3-1.2-4.8c-0.5-1.5-1.1-2.9-1.8-4.1c-0.5-0.8-1.1-1.6-1.7-2.4
		c-0.6-0.7-1.3-1.4-2.1-2c-0.8-0.6-1.6-1.1-2.5-1.6c-0.9-0.5-1.9-0.9-3.1-1.2l-0.7,3.2c0.9,0.3,1.7,0.6,2.5,0.9
		C398.8,47.9,399.5,48.3,400.1,48.8z"/>
	<path class="st1" d="M390.4,60.8h-3.6v3.3h5.1c0.4,0,0.8-0.2,1.1-0.5c0.3-0.3,0.4-0.7,0.4-1.2V42.4h-3V60.8z"/>
	<path class="st1" d="M384.9,60.8c0-0.5-0.1-1.1-0.3-1.8c-0.1-0.7-0.4-1.3-0.7-2c-0.3-0.7-0.7-1.4-1.2-2c-0.5-0.7-1.2-1.3-1.9-1.8
		c-0.8-0.5-1.7-1-2.8-1.3c-1.1-0.3-2.4-0.5-3.9-0.5h-7.4c0.8-1.2,1.7-2.2,2.7-2.9c1-0.7,2.1-1.3,3.2-1.7c0.7-0.3,1.5-0.5,2.3-0.6
		c0.8-0.1,1.5-0.2,2.2-0.3c0.7-0.1,1.4-0.1,2.1-0.1c0.7,0,1.2,0,1.8,0v-3.3c-0.6,0-1.2,0-1.9,0c-0.7,0-1.5,0.1-2.3,0.1
		c-0.8,0.1-1.6,0.2-2.5,0.4c-0.9,0.2-1.7,0.4-2.6,0.7c-0.9,0.3-1.7,0.7-2.5,1.2c-0.8,0.5-1.6,1-2.4,1.7c-0.8,0.7-1.4,1.4-2.1,2.3
		c-0.6,0.9-1.2,1.9-1.7,3.1c-0.1,0.4-0.1,0.7,0,1.1c0.1,0.3,0.2,0.6,0.4,0.9c0.2,0.3,0.4,0.5,0.7,0.6c0.3,0.2,0.7,0.2,1.1,0.2v0h8.9
		c1,0,2,0.1,2.7,0.3c0.8,0.2,1.4,0.5,2,0.8c0.6,0.3,1,0.7,1.4,1.1c0.4,0.4,0.7,0.9,0.9,1.3c0.2,0.5,0.4,0.9,0.5,1.3
		c0.1,0.4,0.2,0.8,0.2,1.2h-21.4v3.3h26v-3.3H384.9z"/>
	<rect x="386.5" y="60.8" class="st1" width="0.3" height="3.3"/>
	<path class="st1" d="M352.4,47.3c0.2,0.2,0.3,0.3,0.5,0.4c0.2,0.1,0.4,0.1,0.6,0.1c0.2,0,0.4,0,0.6-0.1c0.2-0.1,0.4-0.2,0.5-0.4
		c0.1-0.2,0.3-0.4,0.4-0.6c0.1-0.2,0.1-0.4,0.1-0.7c0-0.5-0.2-1-0.5-1.3c-0.3-0.3-0.7-0.5-1.2-0.5c-0.5,0-0.8,0.2-1.2,0.5
		c-0.3,0.3-0.5,0.8-0.5,1.3c0,0.2,0,0.5,0.1,0.7C352.2,46.9,352.3,47.1,352.4,47.3z"/>
	<path class="st1" d="M356.6,47.3c0.2,0.2,0.3,0.3,0.5,0.4c0.2,0.1,0.4,0.1,0.6,0.1c0.2,0,0.4,0,0.6-0.1c0.2-0.1,0.4-0.2,0.5-0.4
		c0.1-0.2,0.3-0.4,0.4-0.6c0.1-0.2,0.1-0.4,0.1-0.7c0-0.5-0.2-1-0.5-1.3c-0.3-0.3-0.7-0.5-1.2-0.5c-0.5,0-0.8,0.2-1.2,0.5
		c-0.3,0.3-0.5,0.8-0.5,1.3c0,0.2,0,0.5,0.1,0.7C356.3,46.9,356.4,47.1,356.6,47.3z"/>
	<polygon class="st1" points="357.2,60.8 357.2,50.9 354.2,50.9 354.2,60.8 351.2,60.8 351.2,64.1 360.2,64.1 360.2,60.8 	"/>
	<rect x="360.2" y="60.8" class="st1" width="0.2" height="3.3"/>
	<path class="st1" d="M348.7,60.8c0.1-0.6,0.2-1.3,0.2-1.9c0-0.6,0.1-1.3,0.1-1.9l0-5.5h-3l0,5.6c0,0.8,0,1.6-0.1,2.3
		c-0.1,0.7-0.2,1.5-0.4,2.2c-0.2,0.8-0.5,1.6-0.9,2.3c-0.4,0.7-0.8,1.3-1.3,1.8c-0.5,0.5-1.1,1-1.8,1.2c-0.7,0.3-1.4,0.4-2.2,0.4
		c-0.4,0-0.8,0-1.2-0.1c-0.4-0.1-0.8-0.2-1.3-0.4l-0.9,3.2c0.6,0.2,1.2,0.4,1.7,0.5c0.6,0.1,1.1,0.2,1.6,0.2c1.2,0,2.3-0.2,3.3-0.7
		c1-0.5,1.9-1.1,2.6-1.9c0.5-0.6,1-1.2,1.4-1.8c0.4-0.7,0.8-1.4,1.1-2.2h3.1v-3.3H348.7z"/>
	<rect x="350.9" y="60.8" class="st1" width="0.3" height="3.3"/>
	<path class="st1" d="M312.9,48.2c0.2,0.2,0.3,0.3,0.5,0.4c0.2,0.1,0.4,0.1,0.6,0.1c0.2,0,0.4,0,0.6-0.1c0.2-0.1,0.4-0.2,0.5-0.4
		c0.1-0.2,0.3-0.4,0.4-0.6c0.1-0.2,0.1-0.4,0.1-0.7c0-0.3,0-0.5-0.1-0.7c-0.1-0.2-0.2-0.4-0.4-0.6c-0.2-0.2-0.3-0.3-0.5-0.4
		c-0.2-0.1-0.4-0.1-0.6-0.1c-0.5,0-0.8,0.2-1.2,0.5c-0.3,0.3-0.5,0.8-0.5,1.3c0,0.2,0,0.5,0.1,0.7C312.6,47.8,312.7,48,312.9,48.2z"
		/>
	<path class="st1" d="M314.6,60.8h-5.1v3.3h6.6c0.4,0,0.8-0.2,1.1-0.5c0.3-0.3,0.4-0.7,0.4-1.2V50.9h-3V60.8z"/>
	<path class="st1" d="M302,70c0.2,0.1,0.4,0.1,0.6,0.1c0.2,0,0.4,0,0.6-0.1c0.2-0.1,0.4-0.2,0.5-0.4c0.1-0.2,0.3-0.4,0.4-0.6
		c0.1-0.2,0.1-0.4,0.1-0.7c0-0.3,0-0.5-0.1-0.7c-0.1-0.2-0.2-0.4-0.4-0.6c-0.2-0.2-0.3-0.3-0.5-0.4c-0.2-0.1-0.4-0.1-0.6-0.1
		c-0.5,0-0.8,0.2-1.2,0.5c-0.3,0.3-0.5,0.8-0.5,1.3c0,0.2,0,0.5,0.1,0.7c0.1,0.2,0.2,0.4,0.3,0.6C301.6,69.8,301.8,69.9,302,70z"/>
	<path class="st1" d="M308,67.1c-0.2-0.2-0.3-0.3-0.5-0.4c-0.2-0.1-0.4-0.1-0.6-0.1c-0.5,0-0.8,0.2-1.2,0.5
		c-0.3,0.3-0.5,0.8-0.5,1.3c0,0.2,0,0.5,0.1,0.7c0.1,0.2,0.2,0.4,0.3,0.6c0.2,0.2,0.3,0.3,0.5,0.4c0.2,0.1,0.4,0.1,0.6,0.1
		c0.2,0,0.4,0,0.6-0.1c0.2-0.1,0.4-0.2,0.5-0.4c0.1-0.2,0.3-0.4,0.4-0.6c0.1-0.2,0.1-0.4,0.1-0.7c0-0.3,0-0.5-0.1-0.7
		C308.2,67.4,308.1,67.3,308,67.1z"/>
	<polygon class="st1" points="306.2,60.8 306.2,50.9 303.2,50.9 303.2,60.8 300.2,60.8 300.2,64.1 309.2,64.1 309.2,60.8 	"/>
	<rect x="309.2" y="60.8" class="st1" width="0.3" height="3.3"/>
	<path class="st1" d="M296.5,60.8V42.4h-3v20.1c0,0.5,0.1,0.9,0.4,1.2c0.3,0.3,0.6,0.5,1.1,0.5h5v-3.3H296.5z"/>
	<rect x="299.9" y="60.8" class="st1" width="0.3" height="3.3"/>
	<path class="st1" d="M274.9,49.5c0.2,0.2,0.3,0.3,0.5,0.4c0.2,0.1,0.4,0.1,0.6,0.1c0.2,0,0.4,0,0.6-0.1c0.2-0.1,0.4-0.2,0.5-0.4
		c0.1-0.2,0.3-0.4,0.4-0.6c0.1-0.2,0.1-0.4,0.1-0.7c0-0.5-0.2-1-0.5-1.3c-0.3-0.3-0.7-0.5-1.2-0.5c-0.5,0-0.8,0.2-1.2,0.5
		c-0.3,0.3-0.5,0.8-0.5,1.3c0,0.2,0,0.5,0.1,0.7C274.7,49.1,274.8,49.3,274.9,49.5z"/>
	<path class="st1" d="M279.1,49.5c0.2,0.2,0.3,0.3,0.5,0.4c0.2,0.1,0.4,0.1,0.6,0.1s0.4,0,0.6-0.1c0.2-0.1,0.4-0.2,0.5-0.4
		c0.1-0.2,0.3-0.4,0.4-0.6c0.1-0.2,0.1-0.4,0.1-0.7c0-0.5-0.2-1-0.5-1.3c-0.3-0.3-0.7-0.5-1.2-0.5c-0.5,0-0.8,0.2-1.2,0.5
		c-0.3,0.3-0.5,0.8-0.5,1.3c0,0.2,0,0.5,0.1,0.7C278.8,49.1,278.9,49.3,279.1,49.5z"/>
	<path class="st1" d="M266.1,62c0.5,0.6,1.3,1.1,2.2,1.5c0.9,0.4,2.1,0.6,3.5,0.6h17.3c0.4,0,0.8-0.2,1.1-0.5
		c0.3-0.3,0.4-0.7,0.4-1.2V50.9h-3v9.9l-15.9,0c-0.9,0-1.6-0.1-2.2-0.3c-0.5-0.2-1-0.4-1.2-0.7c-0.3-0.3-0.5-0.6-0.5-1
		c-0.1-0.4-0.1-0.8-0.1-1.1c0-0.3,0-0.7,0.1-1c0-0.3,0.1-0.6,0.1-0.9l-2.9-0.6c-0.1,0.3-0.1,0.7-0.2,1.1c-0.1,0.4-0.1,0.9-0.1,1.3
		c0,0.7,0.1,1.5,0.3,2.3C265.2,60.7,265.5,61.4,266.1,62z"/>
	<rect x="251.8" y="42.4" class="st1" width="3" height="21.7"/>
	<path class="st1" d="M241.7,64.1h5.1c0.4,0,0.8-0.2,1.1-0.5c0.3-0.3,0.4-0.7,0.4-1.2V42.4h-3v18.4h-3.9v0h0.3V64.1z"/>
	<path class="st1" d="M213.7,47.3c0.2,0.2,0.3,0.3,0.5,0.4c0.2,0.1,0.4,0.1,0.6,0.1c0.2,0,0.4,0,0.6-0.1c0.2-0.1,0.4-0.2,0.5-0.4
		c0.1-0.2,0.3-0.4,0.4-0.6c0.1-0.2,0.1-0.4,0.1-0.7c0-0.5-0.2-1-0.5-1.3c-0.3-0.3-0.7-0.5-1.2-0.5c-0.5,0-0.8,0.2-1.2,0.5
		c-0.3,0.3-0.5,0.8-0.5,1.3c0,0.2,0,0.5,0.1,0.7C213.4,46.9,213.5,47.1,213.7,47.3z"/>
	<path class="st1" d="M217.9,47.3c0.2,0.2,0.3,0.3,0.5,0.4c0.2,0.1,0.4,0.1,0.6,0.1c0.2,0,0.4,0,0.6-0.1c0.2-0.1,0.4-0.2,0.5-0.4
		c0.1-0.2,0.3-0.4,0.4-0.6c0.1-0.2,0.1-0.4,0.1-0.7c0-0.5-0.2-1-0.5-1.3c-0.3-0.3-0.7-0.5-1.2-0.5c-0.5,0-0.8,0.2-1.2,0.5
		c-0.3,0.3-0.5,0.8-0.5,1.3c0,0.2,0,0.5,0.1,0.7C217.6,46.9,217.7,47.1,217.9,47.3z"/>
	<polygon class="st1" points="221.7,60.8 221.7,60.8 218.4,60.8 218.4,50.9 215.5,50.9 215.5,60.8 212.4,60.8 212.4,64.1 
		221.4,64.1 221.4,60.8 	"/>
	<path class="st1" d="M203,47.3c0.2,0.2,0.3,0.3,0.5,0.4c0.2,0.1,0.4,0.1,0.6,0.1c0.2,0,0.4,0,0.6-0.1c0.2-0.1,0.4-0.2,0.5-0.4
		c0.1-0.2,0.3-0.4,0.3-0.6c0.1-0.2,0.1-0.4,0.1-0.7c0-0.5-0.2-1-0.5-1.3c-0.3-0.3-0.7-0.5-1.2-0.5c-0.5,0-0.9,0.2-1.2,0.5
		c-0.3,0.3-0.5,0.8-0.5,1.3c0,0.2,0,0.5,0.1,0.7C202.8,46.9,202.9,47.1,203,47.3z"/>
	<path class="st1" d="M198.8,47.3c0.2,0.2,0.3,0.3,0.5,0.4c0.2,0.1,0.4,0.1,0.6,0.1c0.2,0,0.4,0,0.6-0.1c0.2-0.1,0.4-0.2,0.5-0.4
		c0.1-0.2,0.3-0.4,0.3-0.6c0.1-0.2,0.1-0.4,0.1-0.7c0-0.5-0.2-1-0.5-1.3c-0.3-0.3-0.7-0.5-1.2-0.5c-0.5,0-0.9,0.2-1.2,0.5
		c-0.3,0.3-0.5,0.8-0.5,1.3c0,0.2,0,0.5,0.1,0.7C198.6,46.9,198.7,47.1,198.8,47.3z"/>
	<path class="st1" d="M192.8,60.9L192.8,60.9l-2,0c-0.1-0.5-0.2-1.2-0.5-1.9c-0.2-0.7-0.6-1.4-1-2.2c-0.5-0.7-1-1.5-1.8-2.2
		c-0.7-0.7-1.6-1.4-2.7-1.9c-1.1-0.6-2.4-1-3.9-1.4c-1.5-0.4-3.3-0.5-5.3-0.5V54c1.5,0,2.9,0.1,4.1,0.3c1.2,0.2,2.2,0.5,3.1,0.9
		c0.9,0.4,1.6,0.8,2.2,1.3c0.6,0.5,1.1,1,1.5,1.5c0.4,0.5,0.7,1,0.9,1.5c0.2,0.5,0.4,0.9,0.5,1.3H172v3.3h20.5v-3.3L192.8,60.9z"/>
	<path class="st1" d="M142.3,47.3c0.2,0.2,0.3,0.3,0.5,0.4c0.2,0.1,0.4,0.1,0.6,0.1c0.2,0,0.4,0,0.6-0.1c0.2-0.1,0.4-0.2,0.5-0.4
		c0.1-0.2,0.3-0.4,0.3-0.6c0.1-0.2,0.1-0.4,0.1-0.7c0-0.5-0.2-1-0.5-1.3c-0.3-0.3-0.7-0.5-1.2-0.5c-0.5,0-0.9,0.2-1.2,0.5
		c-0.3,0.3-0.5,0.8-0.5,1.3c0,0.2,0,0.5,0.1,0.7C142.1,46.9,142.2,47.1,142.3,47.3z"/>
	<path class="st1" d="M138.2,47.3c0.2,0.2,0.3,0.3,0.5,0.4c0.2,0.1,0.4,0.1,0.6,0.1c0.2,0,0.4,0,0.6-0.1c0.2-0.1,0.4-0.2,0.5-0.4
		c0.1-0.2,0.3-0.4,0.3-0.6c0.1-0.2,0.1-0.4,0.1-0.7c0-0.5-0.2-1-0.5-1.3c-0.3-0.3-0.7-0.5-1.2-0.5c-0.5,0-0.9,0.2-1.2,0.5
		c-0.3,0.3-0.5,0.8-0.5,1.3c0,0.2,0,0.5,0.1,0.7C137.9,46.9,138,47.1,138.2,47.3z"/>
	<path class="st1" d="M499.7,43.1c0.2,0.2,0.3,0.3,0.5,0.4c0.2,0.1,0.4,0.1,0.6,0.1c0.2,0,0.4,0,0.6-0.1c0.2-0.1,0.4-0.2,0.5-0.4
		c0.1-0.2,0.3-0.4,0.4-0.6c0.1-0.2,0.1-0.4,0.1-0.7c0-0.3,0-0.5-0.1-0.7c-0.1-0.2-0.2-0.4-0.4-0.6c-0.2-0.2-0.3-0.3-0.5-0.4
		c-0.2-0.1-0.4-0.1-0.6-0.1c-0.5,0-0.8,0.2-1.2,0.5c-0.3,0.3-0.5,0.8-0.5,1.3c0,0.2,0,0.5,0.1,0.7C499.5,42.7,499.6,42.9,499.7,43.1
		z"/>
	<path class="st1" d="M501.3,46c0,0.2,0,0.5,0.1,0.7c0.1,0.2,0.2,0.4,0.3,0.6c0.2,0.2,0.3,0.3,0.5,0.4c0.2,0.1,0.4,0.1,0.6,0.1
		c0.2,0,0.4,0,0.6-0.1c0.2-0.1,0.4-0.2,0.5-0.4c0.1-0.2,0.3-0.4,0.3-0.6c0.1-0.2,0.1-0.4,0.1-0.7c0-0.5-0.2-1-0.5-1.3
		c-0.3-0.3-0.7-0.5-1.2-0.5c-0.5,0-0.8,0.2-1.2,0.5C501.5,45.1,501.3,45.5,501.3,46z"/>
	<path class="st1" d="M497.6,47.3c0.2,0.2,0.3,0.3,0.5,0.4c0.2,0.1,0.4,0.1,0.6,0.1c0.2,0,0.4,0,0.6-0.1c0.2-0.1,0.4-0.2,0.5-0.4
		c0.1-0.2,0.3-0.4,0.3-0.6c0.1-0.2,0.1-0.4,0.1-0.7c0-0.5-0.2-1-0.5-1.3c-0.3-0.3-0.7-0.5-1.2-0.5c-0.5,0-0.8,0.2-1.2,0.5
		c-0.3,0.3-0.5,0.8-0.5,1.3c0,0.2,0,0.5,0.1,0.7C497.4,46.9,497.5,47.1,497.6,47.3z"/>
	<path class="st1" d="M509,64.1c0.4,0,0.8-0.2,1.1-0.5c0.3-0.3,0.4-0.7,0.4-1.2V50.9h-3v9.9h-5.1v-9.9h-3v9.9h-5.1v-9.9h-3v9.9h-3
		v3.3H509z"/>
	<path class="st1" d="M488.1,60.8H486c0.1-0.6,0.2-1.3,0.2-1.9c0-0.6,0.1-1.3,0.1-1.9l0-5.5h-3l0,5.6c0,0.8,0,1.6-0.1,2.3
		c-0.1,0.7-0.2,1.5-0.4,2.2c-0.2,0.8-0.5,1.6-0.9,2.3c-0.4,0.7-0.8,1.3-1.3,1.8c-0.5,0.5-1.1,1-1.8,1.2c-0.7,0.3-1.4,0.4-2.2,0.4
		c-0.4,0-0.8,0-1.2-0.1c-0.4-0.1-0.8-0.2-1.3-0.4l-0.9,3.2c0.6,0.2,1.2,0.4,1.7,0.5c0.6,0.1,1.1,0.2,1.6,0.2c1.2,0,2.3-0.2,3.3-0.7
		c1-0.5,1.9-1.1,2.6-1.9c0.5-0.6,1-1.2,1.4-1.8c0.4-0.7,0.8-1.4,1.1-2.2h3V60.8z"/>
	<rect x="488.1" y="60.8" class="st1" width="0.3" height="3.3"/>
	<path class="st1" d="M438.2,64.1h10.2v-3.3h-2V49.2h-3v1.6c-1.8,0.1-3.4,0.3-4.7,0.7c-0.2,0.1-0.4,0.1-0.6,0.2
		c-1.1,0.4-2.1,0.8-2.9,1.3c-1,0.6-1.8,1.2-2.4,1.9c-0.7,0.7-1.2,1.4-1.6,2.1c-0.4,0.7-0.7,1.4-0.9,2.1c-0.2,0.7-0.4,1.3-0.4,1.8
		c-0.1,0.5-0.1,1-0.1,1.3c0,0.3,0,0.5,0,0.5l0.1,1.6H438.2z M433.4,59.6c0.2-0.5,0.5-0.9,0.8-1.4c0.3-0.5,0.8-0.9,1.3-1.4
		c0.5-0.5,1.2-0.9,1.9-1.2c0.3-0.1,0.6-0.3,0.9-0.4c0.5-0.2,1.1-0.4,1.8-0.6c1-0.3,2.2-0.4,3.5-0.5v6.7h-5.3H433
		C433.1,60.5,433.2,60,433.4,59.6z"/>
	<rect x="448.5" y="60.8" class="st1" width="0.3" height="3.3"/>
	<path class="st1" d="M332,67.7c0.7-0.7,1.3-1.4,1.8-2.2c0.5-0.8,0.9-1.7,1.3-2.6c0.3-0.9,0.6-1.9,0.7-2.8c0.2-1,0.2-2,0.2-2.9
		c0-1.1-0.2-2.2-0.6-3.2c-0.4-1-1-1.9-1.7-2.6c-0.7-0.7-1.6-1.3-2.6-1.8c-1-0.4-2-0.6-3.2-0.6h0c-1.1,0-2.2,0.2-3.2,0.6
		c-1,0.4-1.8,1-2.6,1.8c-0.7,0.7-1.3,1.6-1.7,2.6c-0.4,1-0.6,2.1-0.6,3.2c0,1.2,0.2,2.3,0.7,3.4c0.4,1.1,1.1,1.9,1.9,2.7
		c0.7,0.6,1.4,1,2.1,1.4c0.8,0.3,1.6,0.5,2.4,0.6c0.4,0,0.7,0,1.1,0c0.5,0,0.9-0.1,1.4-0.3c0.8-0.2,1.6-0.7,2.4-1.2l-1.3,1.4
		c-0.8,0.7-1.6,1.3-2.6,1.7l-0.1,0.1c-1,0.5-2.1,0.7-3.5,0.7c-1,0-2.1-0.2-3.3-0.5l-0.7,3.2c1.4,0.4,2.7,0.6,4,0.6
		c1.3,0,2.5-0.2,3.7-0.6c0.3-0.1,0.5-0.2,0.7-0.3C329.8,69.4,331,68.6,332,67.7z M331.4,60.6c-0.5,0.5-1,0.8-1.6,1.1
		c-0.6,0.3-1.3,0.4-2,0.4h0c-0.7,0-1.4-0.1-2-0.4c-0.6-0.3-1.2-0.6-1.6-1.1c-0.5-0.5-0.8-1-1.1-1.6c-0.3-0.6-0.4-1.2-0.4-1.9
		c0-0.7,0.1-1.3,0.4-1.9c0.3-0.6,0.6-1.1,1.1-1.6c0.5-0.5,1-0.8,1.6-1.1c0.6-0.3,1.3-0.4,2-0.4h0c0.7,0,1.4,0.1,2,0.4
		c0.6,0.3,1.2,0.6,1.6,1.1c0.5,0.5,0.8,1,1.1,1.6c0.3,0.6,0.4,1.2,0.4,1.9c0,0.7-0.1,1.3-0.4,1.9C332.3,59.6,331.9,60.1,331.4,60.6z
		"/>
	<path class="st1" d="M237.9,64.2h3.8v0h-0.3v-3.3h-1.9c0.1-0.3,0.1-0.6,0.1-0.9c0-0.3,0.1-0.6,0.1-0.9c0-1.1-0.2-2.2-0.6-3.2
		c-0.4-1-1-1.9-1.8-2.6c-0.7-0.7-1.6-1.3-2.6-1.8c-1-0.4-2-0.6-3.2-0.6h0c-1.1,0-2.2,0.2-3.2,0.7c-1,0.4-1.8,1-2.6,1.8
		c-0.7,0.7-1.3,1.6-1.7,2.6c-0.4,1-0.6,2.1-0.6,3.2c0,0.6,0.1,1.2,0.2,1.8h-1.9v3.3h-0.3v0h3.7c0.8,1,1.7,1.7,2.8,2.3
		c1.1,0.6,2.3,0.9,3.6,0.9h0c1.3,0,2.5-0.3,3.6-0.9C236.3,65.9,237.2,65.1,237.9,64.2z M236.3,61c-0.3,0.6-0.6,1.1-1.1,1.6
		c-0.5,0.5-1,0.8-1.6,1.1c-0.6,0.3-1.3,0.4-2,0.4h0c-0.7,0-1.4-0.1-2-0.4c-0.6-0.3-1.2-0.6-1.6-1.1c-0.5-0.5-0.8-1-1.1-1.6
		c-0.3-0.6-0.4-1.3-0.4-1.9c0-0.7,0.1-1.3,0.4-1.9c0.3-0.6,0.6-1.1,1.1-1.6c0.5-0.4,1-0.8,1.6-1.1c0.6-0.3,1.3-0.4,2-0.4h0
		c0.7,0,1.4,0.1,2,0.4c0.6,0.3,1.2,0.6,1.7,1.1c0.5,0.5,0.8,1,1.1,1.6c0.3,0.6,0.4,1.3,0.4,1.9C236.7,59.7,236.6,60.4,236.3,61z"/>
	<rect x="241.4" y="60.8" class="st1" width="0.3" height="3.3"/>
	<rect x="221.4" y="60.8" class="st1" width="0.3" height="3.3"/>
	<path class="st1" d="M210.3,60.8c-0.1-1.4-0.3-2.6-0.5-3.7c-0.3-1.1-0.6-2.1-1.1-2.9c-0.4-0.8-0.9-1.5-1.5-2.1
		c-0.6-0.6-1.1-1.1-1.8-1.4c-0.6-0.4-1.3-0.6-1.9-0.8c-0.3-0.1-0.7-0.2-1-0.2c-0.3,0-0.6-0.1-0.9-0.1c-0.9,0-1.8,0.2-2.6,0.6
		c-0.8,0.4-1.6,0.9-2.2,1.5c-0.6,0.6-1.1,1.4-1.5,2.3c-0.4,0.9-0.6,1.8-0.6,2.7c0,0.7,0.1,1.4,0.3,2.1c0.2,0.7,0.6,1.4,1.1,2.1
		l-3.4,0v3.3h9.7h9.6v-3.3H210.3z M202.5,60.8h-1.4c-1.2-0.6-2.1-1.3-2.7-2c-0.5-0.7-0.8-1.4-0.8-2.1c0-0.5,0.1-1,0.3-1.4
		c0.2-0.5,0.5-0.9,0.9-1.2c0.4-0.3,0.8-0.6,1.2-0.8c0.5-0.2,0.9-0.3,1.4-0.3c0.3,0,0.6,0,0.9,0.1c0.3,0.1,0.6,0.2,1,0.3
		c0.6,0.3,1.2,0.7,1.8,1.3c0.5,0.6,1,1.4,1.4,2.4c0.4,1,0.6,2.3,0.7,3.7H202.5z"/>
	<rect x="212.2" y="60.8" class="st1" width="0.3" height="3.3"/>
	<rect x="192.5" y="60.9" class="st1" width="0.3" height="3.3"/>
	<path class="st1" d="M168.4,61.4c0.6-0.7,1-1.4,1.3-2.2c0.3-0.8,0.4-1.6,0.4-2.4c0-1-0.2-2-0.6-2.9c-0.4-1-0.9-1.8-1.6-2.6
		c-0.7-0.8-1.5-1.4-2.5-1.8c-1-0.5-2.1-0.7-3.3-0.7l-0.1,0c-1.1,0-2.2,0.3-3.3,0.8c-1.1,0.5-2,1.2-2.8,2.2c-0.4,0.5-0.8,1-1,1.6
		c-0.3,0.5-0.5,1.1-0.6,1.7c-0.1,0.6-0.2,1.2-0.3,1.8c-0.1,0.6-0.1,1.2-0.1,1.8c0,0.4,0,0.7,0,1.1c0,0.4,0,0.7,0,1.1v0.1h-2.2v3.3
		h-0.3v0h8.5c0.5,0,1,0,1.5,0c0.2,0,0.4,0,0.6,0c0.3,0,0.7-0.1,1-0.1c1.2-0.1,2.3-0.4,3.2-0.9C167.1,62.6,167.8,62.1,168.4,61.4z
		 M164.7,60.2c-0.6,0.2-1.2,0.4-2,0.5c-0.2,0-0.4,0-0.6,0.1l-0.1,0c-0.2,0-0.3,0-0.5,0c-0.2,0-0.4,0-0.7,0c-0.3,0-0.5,0-0.9,0h-3
		l0-2c0-0.5,0-0.9,0.1-1.4c0-0.5,0.1-0.9,0.2-1.3c0.1-0.4,0.2-0.8,0.4-1.2c0.2-0.4,0.4-0.7,0.6-1c0.5-0.6,1.1-1.1,1.8-1.4
		c0.7-0.3,1.4-0.5,2.1-0.5l0.1,0c0.8,0,1.5,0.1,2.1,0.4c0.6,0.3,1.1,0.6,1.6,1.1c0.4,0.5,0.8,1,1,1.5c0.2,0.6,0.3,1.1,0.3,1.7
		c0,0.5-0.1,0.9-0.3,1.3c-0.2,0.4-0.4,0.8-0.8,1.2C165.8,59.7,165.3,60,164.7,60.2z"/>
	<path class="st1" d="M151.8,60.8L151.8,60.8l-2.3,0V49.2h-3v1.6c-1.8,0.1-3.4,0.3-4.7,0.7c-0.2,0.1-0.4,0.1-0.6,0.2
		c-1.1,0.4-2.1,0.8-2.9,1.3c-1,0.6-1.8,1.2-2.4,1.9c-0.7,0.7-1.2,1.4-1.6,2.1c-0.4,0.7-0.7,1.4-0.9,2.1c-0.2,0.7-0.4,1.3-0.4,1.8
		c-0.1,0.5-0.1,1-0.1,1.3c0,0.3,0,0.5,0,0.5l0.1,1.6h8.4h10.2v-3.3H151.8z M146.6,60.8h-5.3H136c0.1-0.4,0.2-0.8,0.4-1.2
		c0.2-0.5,0.5-0.9,0.8-1.4c0.3-0.5,0.8-0.9,1.3-1.4c0.5-0.5,1.2-0.9,1.9-1.2c0.3-0.1,0.6-0.3,0.9-0.4c0.5-0.2,1.1-0.4,1.8-0.6
		c1-0.3,2.2-0.4,3.5-0.5V60.8z"/>
	<rect x="151.5" y="60.8" class="st1" width="0.3" height="3.3"/>
	<line class="st3" x1="131.9" y1="75.6" x2="511.5" y2="75.6"/>
</g>
<g>
	<g>
		<path class="st4" d="M45.9,109.5H48l-2.1-5.2v-4.2h2.8l6.7,15.4h-5.3l-1.1-2.9h-3.2V109.5z M43.8,109.5h2.1v3.2h-3.2l-1.1,2.9
			h-5.1l6.9-15.4h2.5v4.2l0-0.1L43.8,109.5z"/>
		<polygon class="st4" points="61.7,115.2 61.7,99.8 76.2,99.8 76.2,103 66.6,103 66.6,105.7 75.4,105.7 75.4,108.8 66.6,108.8 
			66.6,112.1 76.5,112.1 76.5,115.2 		"/>
		<path class="st4" d="M99.3,109.8c-0.3,1.8-1.2,3.2-2.7,4.2c-1.5,1-3.4,1.6-5.7,1.6c-2.8,0-5.1-0.8-6.8-2.2
			c-1.7-1.4-2.6-3.4-2.6-5.8c0-2.5,0.8-4.5,2.6-6c1.7-1.5,4.1-2.3,7-2.3c2.3,0,4.2,0.5,5.7,1.5c1.5,1,2.3,2.3,2.5,4h-4.6
			c-0.2-0.8-0.7-1.3-1.3-1.7c-0.6-0.4-1.4-0.6-2.4-0.6c-1.4,0-2.5,0.5-3.2,1.3c-0.8,0.8-1.2,2.1-1.2,3.6c0,1.5,0.4,2.7,1.1,3.5
			c0.8,0.8,1.8,1.3,3.2,1.3c1.1,0,2-0.2,2.6-0.6c0.7-0.5,1.1-1.1,1.3-1.9H99.3z"/>
		<g>
			<path class="st5" d="M85.6,46.2c-0.6-2.4-1.4-4.6-2.3-6.6c-0.3,0.1-0.6,0.1-1,0.1c-2.1,0-3.8-1.4-4.2-3.3
				c-2.3,0.2-4.7,0.6-7.1,1.3c2.6,1,5.1,2.2,7.6,3.6C81.2,42.9,83.5,44.5,85.6,46.2z"/>
			<path class="st5" d="M78.1,34.9c0.1-0.8,0.5-1.5,1.1-2c-3-3.6-6.7-5.7-10.6-5.7c-4.6,0-8.8,2.9-12.1,7.6c3.9,0.1,8,0.8,12.1,2.1
				C71.8,35.8,75,35.2,78.1,34.9z"/>
			<path class="st5" d="M58.4,41.4c2.5-1.4,5.1-2.6,7.6-3.6c-3.4-0.9-6.8-1.4-10-1.4c-0.2,0-0.4,0-0.5,0c-1.7,2.8-3.1,6.2-4,9.9
				C53.5,44.5,55.9,42.9,58.4,41.4z"/>
			<circle class="st4" cx="46.5" cy="37.2" r="2.7"/>
			<path class="st5" d="M87.6,47.9c3.3,3,5.9,6.2,7.9,9.4c2.5-5.2,2.8-10.3,0.5-14.3c-1.8-3.2-5.2-5.3-9.6-6.2
				c-0.3,0.9-0.9,1.7-1.7,2.2C86,41.7,86.9,44.7,87.6,47.9z"/>
			<path class="st4" d="M75.5,75c0,1.5,1.2,2.7,2.7,2.7c1.5,0,2.7-1.2,2.7-2.7c0-1.5-1.2-2.7-2.7-2.7C76.7,72.3,75.5,73.5,75.5,75z"
				/>
			<path class="st5" d="M94.7,59c-1.6-2.9-3.8-5.8-6.6-8.5c0.4,2.7,0.7,5.5,0.7,8.5c0,2.9-0.2,5.7-0.7,8.4
				C90.9,64.7,93.1,61.9,94.7,59z"/>
			<path class="st5" d="M81.8,72.7c1.6-1.1,3.1-2.3,4.4-3.5c0.6-3.2,1-6.6,1-10.2c0-3.6-0.4-7-1-10.2c-2.5-2.2-5.2-4.2-8.3-6
				c-3-1.8-6.2-3.2-9.3-4.2c-3.1,1.1-6.3,2.5-9.3,4.2c-3.1,1.8-5.9,3.8-8.4,6c-0.6,3.2-1,6.6-1,10.2c0,3.6,0.4,7,1,10.2
				c2.5,2.2,5.3,4.2,8.4,6c3.1,1.8,6.2,3.2,9.3,4.3c2-0.7,4-1.5,5.9-2.4c-0.3-0.6-0.5-1.2-0.5-1.9c0-2.3,1.9-4.1,4.3-4.1
				C79.7,71,81,71.6,81.8,72.7z M76.8,53.7c-1-0.8-3.1-0.8-2.6-0.6c3.6,1.5,2.5,6,2.3,5.5c-0.8-2.3-2.8-2.5-2.4-2.2
				c2.1,1.6,1,5.3,0.8,5c-0.5-1.8-2.5-2.7-2.3-2.4c2.4,3.7-1.1,5.6-1.1,5.4c0.6-1.9-2-4.4-2-3.9c-0.3,1.4,0.4,2.5,0.6,3.3
				c0.3,0.8,0,2.1-0.2,2.9c-0.2,0.8,0.9,2.2,0.4,3.3c-0.5,1.1,0.4,2.4,0.2,2.3c-0.5-0.3-4.1-0.1-4-0.2c0.8-1.9,0-2.9,0.3-3.9
				c0.8-2.4,0.3-1.7,0.3-2.8c-0.1-1.2,0.2-1.9,0.4-2.7c0.3-0.8,0.5-2.5,0.1-2.2c-2.6,1.7-1.7,4.2-2,4c-3.6-2.7-0.1-5.7-1-5.4
				c-2.9,0.9-2.1,3.3-2.4,2.3c-1.4-4.2,2.1-5.4,1.2-5.2c-3.3,0.5-2.4,3.2-2.7,2c-1.1-4.1,3.7-4.9,2.6-5c-2.6-0.4-2.8,1.6-2.8,0.9
				c0.5-4,5.3-2.4,4.4-3.1c-1.5-1-2.4-0.4-2.4-0.3c0,0,0.1-0.1,0.2-0.3c2.1-2.9,4.5-0.5,4.5-1c0.5-1.9,1.4-2.2,1.6-2.4
				c0.2-0.1,1.3,0.8,1.6,2.4c2.4-1.5,5.6,1.2,4.8,0.9c-0.9-0.3-3,0.5-2.1,0.5C76.3,50.9,77.1,53.9,76.8,53.7z"/>
			<path class="st4" d="M82.4,38.4c1.5,0,2.7-1.2,2.7-2.7c0-1.5-1.2-2.7-2.7-2.7c-1.5,0-2.7,1.2-2.7,2.7
				C79.6,37.1,80.8,38.4,82.4,38.4z"/>
			<path class="st5" d="M87.6,70.1c-0.9,4.3-2.4,8.2-4.2,11.5c5.9-0.5,10.4-2.8,12.6-6.7c2.3-4,1.9-9.1-0.5-14.3
				C93.6,63.9,90.9,67.1,87.6,70.1z"/>
			<path class="st5" d="M82.4,74.2c0.1,0.3,0.1,0.6,0.1,0.9c0,2.3-1.9,4.1-4.3,4.1c-1,0-2-0.4-2.7-0.9c-1.5,0.7-3,1.4-4.5,2
				c3.4,0.9,6.8,1.4,10,1.4c0.2,0,0.4,0,0.5,0c1.7-2.8,3-6.1,4-9.9C84.6,72.6,83.5,73.4,82.4,74.2z"/>
			<path class="st5" d="M49.4,48c0.9-4.3,2.4-8.2,4.2-11.5c-1,0.1-1.9,0.2-2.8,0.4c0,0.1,0,0.2,0,0.4c0,2.3-1.9,4.1-4.3,4.1
				c-1.2,0-2.2-0.5-3-1.2c-1,0.9-1.9,1.8-2.5,3c-2.3,4-1.9,9.1,0.5,14.3C43.5,54.1,46.1,50.9,49.4,48z"/>
			<path class="st5" d="M90.8,28L68.4,12L46,28L23.6,44.1l8.5,26l8.6,26h27.7h27.7l8.6-26l8.6-26L90.8,28z M97.4,75.7
				c-2.7,4.6-7.9,7.2-15,7.5c-3.6,5.7-8.5,9.1-13.9,9.1c-5.4,0-10.3-3.5-13.9-9.1c-7-0.3-12.3-2.9-15-7.5C37,71,37.5,65,40.6,59
				c-3.1-6-3.7-12-1-16.7c0.8-1.3,1.8-2.5,2.9-3.5c-0.2-0.5-0.4-1.1-0.4-1.6c0-2.3,1.9-4.1,4.3-4.1c1.7,0,3.1,0.9,3.8,2.2
				c1.3-0.3,2.7-0.4,4.2-0.5c3.6-5.7,8.5-9.2,13.9-9.2c4.4,0,8.5,2.4,11.8,6.3c0.6-0.3,1.3-0.5,2-0.5c2.3,0,4.1,1.7,4.3,3.8
				c4.9,1,8.7,3.4,10.8,7c2.7,4.7,2.1,10.7-1,16.7C99.5,65,100.1,71,97.4,75.7z"/>
			<path class="st5" d="M56.5,83.2c3.3,4.7,7.5,7.5,12.1,7.5c4.6,0,8.8-2.8,12-7.5c-3.9-0.1-7.9-0.8-12.1-2.1
				C64.4,82.4,60.3,83.2,56.5,83.2z"/>
			<path class="st5" d="M58.4,76.5c-2.5-1.5-4.9-3.1-7-4.8c1,3.7,2.3,7.1,4,9.9c0.2,0,0.4,0,0.6,0c3.2,0,6.6-0.5,10-1.4
				C63.5,79.2,60.9,78,58.4,76.5z"/>
			<path class="st5" d="M42.4,59c1.6,2.9,3.8,5.7,6.5,8.4c-0.4-2.7-0.7-5.5-0.7-8.4c0-2.9,0.2-5.7,0.7-8.4
				C46.2,53.3,44,56.1,42.4,59z"/>
			<path class="st5" d="M41.5,60.6c-2.5,5.2-2.8,10.3-0.5,14.3c2.2,3.9,6.7,6.2,12.6,6.7c-1.8-3.3-3.3-7.2-4.2-11.5
				C46.1,67.1,43.5,63.9,41.5,60.6z"/>
		</g>
	</g>
	<g>
		<g>
			<polygon class="st1" points="53,121.8 51.2,121.8 50.4,122.8 53.5,122.8 53.8,123.4 55.2,123.4 52.8,118.9 52,120 			"/>
			<polygon class="st1" points="62.1,118.9 62.1,118.9 60.5,118.9 58.8,121.3 57.1,118.9 55.6,118.9 55.6,118.9 55.6,123.4 
				56.8,123.4 56.8,120.6 58.8,123.4 60.8,120.6 60.8,123.4 62.1,123.4 62.1,118.9 			"/>
			<rect x="62.7" y="118.9" class="st1" width="1.2" height="4.4"/>
			<path class="st1" d="M48.9,120.1v-1.2h-4.1c-0.3,0-0.5,0.1-0.7,0.3c-0.2,0.2-0.3,0.4-0.3,0.7c0,0.6,0.4,0.8,0.8,1l2.5,1.3h-3.2
				v1.2h4.3l0.8-1.6l-3.5-1.7H48.9z"/>
		</g>
		<g>
			<polygon class="st6" points="47.8,125.2 47.9,125.2 52.8,118.9 51.1,118.9 			"/>
			<polygon class="st6" points="53,116.8 51.5,118.3 53,118.3 			"/>
		</g>
	</g>
	<g>
		<path class="st1" d="M38.9,119h0.7l1.7,4.1h-0.7l-0.4-0.9h-2l-0.4,0.9h-0.7L38.9,119z M39.2,119.7l-0.8,1.9H40L39.2,119.7z"/>
		<path class="st1" d="M70,122.7c-0.4,0.3-0.9,0.5-1.4,0.5c-0.7,0-1.3-0.2-1.7-0.7c-0.3-0.4-0.5-0.8-0.5-1.4c0-0.6,0.2-1.1,0.6-1.5
			c0.4-0.4,0.9-0.6,1.5-0.6c0.5,0,1,0.1,1.4,0.4l-0.3,0.4c-0.3-0.2-0.7-0.3-1-0.3c-0.5,0-0.8,0.2-1.1,0.5c-0.2,0.3-0.4,0.7-0.4,1.2
			c0,0.5,0.1,0.9,0.4,1.1c0.3,0.3,0.6,0.4,1.1,0.4c0.3,0,0.7-0.1,1-0.3L70,122.7z"/>
		<path class="st1" d="M72.9,123.2c-0.7,0-1.3-0.2-1.6-0.7c-0.3-0.4-0.5-0.8-0.5-1.4c0-0.6,0.2-1.2,0.6-1.6c0.4-0.4,0.9-0.6,1.5-0.6
			c0.7,0,1.3,0.2,1.6,0.7c0.3,0.4,0.5,0.8,0.5,1.4c0,0.6-0.2,1.1-0.6,1.5C74,123,73.5,123.2,72.9,123.2z M72.9,122.7
			c0.5,0,0.8-0.2,1.1-0.5c0.2-0.3,0.3-0.6,0.3-1.1c0-0.5-0.1-0.9-0.4-1.2c-0.2-0.3-0.6-0.4-1-0.4c-0.5,0-0.8,0.2-1.1,0.5
			c-0.2,0.3-0.3,0.6-0.3,1.1c0,0.5,0.1,0.9,0.4,1.2C72.1,122.5,72.5,122.7,72.9,122.7z"/>
		<path class="st1" d="M76.7,119.7v3.3H76V119h0.9c0.4,0.7,0.8,1.6,1.2,2.8c0.1,0.3,0.2,0.5,0.2,0.6c0-0.1,0.1-0.3,0.2-0.4
			c0.5-1.3,0.9-2.3,1.3-3h0.9v4.1H80v-3.4c-0.2,0.6-0.7,1.7-1.4,3.4h-0.6c-0.2-0.4-0.5-1-0.8-1.7C77,120.6,76.8,120.1,76.7,119.7z"
			/>
		<path class="st1" d="M82.1,123.1V119c0.4-0.1,0.9-0.1,1.2-0.1c1.2,0,1.7,0.4,1.7,1.2c0,0.4-0.2,0.8-0.5,1
			c-0.3,0.2-0.7,0.3-1.1,0.3c-0.2,0-0.4,0-0.6,0v1.6H82.1z M82.8,119.5v1.5c0.2,0,0.4,0,0.6,0c0.6,0,0.9-0.3,0.9-0.8
			c0-0.5-0.3-0.8-1-0.8C83.1,119.4,82.9,119.4,82.8,119.5z"/>
		<path class="st1" d="M86.8,119h0.7l1.7,4.1h-0.7l-0.4-0.9h-2l-0.4,0.9h-0.7L86.8,119z M87.1,119.7l-0.8,1.9h1.6L87.1,119.7z"/>
		<path class="st1" d="M90.7,120v3.1H90V119h0.6c1,1.2,1.8,2.3,2.4,3.1V119h0.7v4.1h-0.6C92.6,122.5,91.8,121.5,90.7,120z"/>
		<path class="st1" d="M94.5,119h0.7l1.2,2l1.2-2h0.7l-1.6,2.5v1.6h-0.7v-1.6L94.5,119z"/>
	</g>
</g>
</svg>
