<?xml version="1.0" encoding="utf-8"?>
<!-- Generator: Adobe Illustrator 26.1.0, SVG Export Plug-In . SVG Version: 6.00 Build 0)  -->
<svg version="1.1" id="Layer_1" xmlns="http://www.w3.org/2000/svg" xmlns:xlink="http://www.w3.org/1999/xlink" x="0px" y="0px"
	 viewBox="0 0 544.3 138.9" style="enable-background:new 0 0 544.3 138.9;" xml:space="preserve">
<style type="text/css">
	.st0{fill:#044857;}
	.st1{fill:#69A82F;}
</style>
<g>
	<g>
		<g>
			<polygon class="st0" points="147.4,79.3 124.4,79.3 113.9,92.4 154.4,92.4 158.6,99.6 176.9,99.6 145.9,42.3 134.9,55.9 			"/>
			<polygon class="st0" points="267.6,42.3 267.6,42.3 247.6,42.3 224.9,73.1 202.1,42.3 182,42.3 181.9,42.3 181.9,99.6 
				198.1,99.6 198.1,64.1 225,100.4 251.6,64.1 251.6,99.6 267.8,99.6 267.8,42.3 			"/>
			<rect x="275.7" y="42.3" class="st0" width="16.2" height="57.3"/>
			<path class="st0" d="M94.4,57.8V42.3H39.7c-4.5,0.1-6.7,1.4-9,3.7c-2.3,2.3-3.7,5.5-3.7,9c0,7.2,5.1,10.2,10.5,12.9l32.7,16.1
				H27.3v15.5h56.8l10.8-20.2L49,57.8H94.4z"/>
			<polygon class="st1" points="79.6,122.9 81.1,122.9 145.9,42.3 122.5,42.3 			"/>
			<polygon class="st1" points="148.1,14.3 127.6,34.8 148.1,34.8 			"/>
		</g>
	</g>
	<g>
		<path class="st0" d="M320.8,42h3l8.7,24.4h-2.9l-2-5.7H317l-2,5.7h-3L320.8,42z M322.2,45.2l-4.5,13.1h9L322.2,45.2z"/>
		<path class="st0" d="M335.6,66.3V42c2.2-0.3,4.1-0.5,5.9-0.5c4.2,0,7.3,1.3,9.5,3.8c1.9,2.2,2.9,5.1,2.9,8.6
			c0,4.3-1.2,7.6-3.6,9.9c-2.1,2-5,3-8.7,3C339.9,66.8,337.8,66.6,335.6,66.3 M338.5,44v20.2c0.9,0.2,2,0.2,3.2,0.2
			c3.1,0,5.4-1,7-2.9c1.5-1.8,2.2-4.3,2.2-7.5c0-3.5-1-6.1-3-8c-1.6-1.5-3.7-2.3-6.3-2.3C340.3,43.8,339.2,43.9,338.5,44"/>
		<polygon class="st0" points="357.9,42 364.7,62.2 371.6,42 374.6,42 365.9,66.3 363.6,66.3 354.8,42 		"/>
		<path class="st0" d="M380.8,42h3l8.7,24.4h-2.9l-2-5.7H377l-2,5.7h-3L380.8,42z M382.3,45.2l-4.5,13.1h9L382.3,45.2z"/>
		<path class="st0" d="M398.5,66.3h-2.8V42h2.6c2.3,3.5,6.4,10.1,12.2,19.9V42h2.8v24.4h-2.7c-1.4-2.1-4.2-6.6-8.5-13.5
			c-1.8-2.9-3-4.9-3.7-6V66.3z"/>
		<path class="st0" d="M435.1,43.9l-1.2,1.7c-1.7-1.1-3.5-1.6-5.3-1.6c-2.5,0-4.4,1-5.8,3c-1.3,1.8-2,4.3-2,7.4
			c0,3.2,0.8,5.7,2.5,7.5c1.4,1.6,3.3,2.3,5.5,2.3c1.8,0,3.6-0.6,5.3-1.8l1.2,1.7c-2,1.7-4.3,2.6-6.8,2.6c-3.5,0-6.3-1.4-8.3-4.1
			c-1.6-2.2-2.5-5-2.5-8.3c0-3.7,1-6.8,3-9.3c1.9-2.4,4.3-3.6,7.3-3.6C430.7,41.5,433,42.3,435.1,43.9"/>
		<polygon class="st0" points="439.7,42 454,42 454,44.4 442.6,44.4 442.6,52.4 452.2,52.4 452.2,54.9 442.6,54.9 442.6,63.9 
			454.5,63.9 454.5,66.3 439.7,66.3 		"/>
		<path class="st0" d="M459.2,66.3V42c2.2-0.3,4.1-0.5,5.9-0.5c4.2,0,7.3,1.3,9.5,3.8c1.9,2.2,2.9,5.1,2.9,8.6
			c0,4.3-1.2,7.6-3.6,9.9c-2.1,2-5,3-8.7,3C463.5,66.8,461.4,66.6,459.2,66.3 M462.1,44v20.2c0.9,0.2,2,0.2,3.2,0.2
			c3.1,0,5.4-1,7-2.9c1.5-1.8,2.2-4.3,2.2-7.5c0-3.5-1-6.1-3-8c-1.6-1.5-3.7-2.3-6.3-2.3C463.9,43.8,462.8,43.9,462.1,44"/>
	</g>
	<g>
		<polygon class="st0" points="312,75.3 326.4,75.3 326.4,77.7 314.9,77.7 314.9,85.8 324.6,85.8 324.6,88.2 314.9,88.2 314.9,97.2 
			326.9,97.2 326.9,99.7 312,99.7 		"/>
		<polygon class="st0" points="331.6,99.7 331.6,75.3 334.4,75.3 334.4,97.2 344,97.2 344,99.7 		"/>
		<polygon class="st0" points="348.5,75.3 362.9,75.3 362.9,77.7 351.4,77.7 351.4,85.8 361.1,85.8 361.1,88.2 351.4,88.2 
			351.4,97.2 363.4,97.2 363.4,99.7 348.5,99.7 		"/>
		<path class="st0" d="M383.8,77.3l-1.2,1.7c-1.7-1.1-3.5-1.6-5.3-1.6c-2.5,0-4.4,1-5.8,3c-1.3,1.8-2,4.3-2,7.4
			c0,3.2,0.8,5.7,2.5,7.5c1.4,1.6,3.3,2.3,5.5,2.3c1.8,0,3.6-0.6,5.3-1.8l1.2,1.7c-2,1.7-4.3,2.6-6.8,2.6c-3.5,0-6.3-1.4-8.3-4.1
			c-1.6-2.2-2.5-5-2.5-8.3c0-3.7,1-6.8,3-9.3c1.9-2.4,4.3-3.6,7.3-3.6C379.4,74.8,381.7,75.6,383.8,77.3"/>
		<polygon class="st0" points="386.1,77.7 386.1,75.3 404.4,75.3 404.4,77.7 396.4,77.7 396.4,99.7 393.5,99.7 393.5,77.7 		"/>
		<path class="st0" d="M408,99.7V75.3c2.3-0.3,4.3-0.5,5.9-0.5c5.8,0,8.6,2.5,8.6,7.4c0,3.4-1.4,5.6-4.3,6.8l4.9,10.7h-2.9l-4.5-10
			l0,0c-0.4,0.1-1,0.1-1.6,0.1c-1,0-2.1-0.1-3.2-0.2v10.2H408z M410.8,77.4v9.8c0.9,0.2,2,0.2,3.1,0.2c3.7,0,5.6-1.7,5.6-5.2
			c0-3.4-1.9-5.1-5.6-5.1C412.7,77.1,411.7,77.2,410.8,77.4"/>
		<path class="st0" d="M436.1,100.1c-3.5,0-6.2-1.5-8.2-4.4c-1.5-2.3-2.3-5-2.3-8.2c0-3.7,1-6.8,3-9.2c1.9-2.3,4.4-3.5,7.5-3.5
			c3.5,0,6.3,1.5,8.2,4.4c1.5,2.3,2.3,5.1,2.3,8.3c0,3.7-1,6.8-3,9.2C441.6,99,439.1,100.1,436.1,100.1 M428.6,87.5
			c0,3.2,0.7,5.8,2.1,7.6c1.3,1.7,3.1,2.5,5.3,2.5c2.6,0,4.5-1.1,5.8-3.2c1.1-1.8,1.6-4.1,1.6-6.9c0-3.2-0.7-5.8-2.1-7.6
			c-1.3-1.7-3.1-2.6-5.3-2.6c-2.5,0-4.5,1.1-5.8,3.3C429.2,82.4,428.6,84.7,428.6,87.5"/>
		<path class="st0" d="M453.9,99.7H451V75.3h2.6c2.3,3.5,6.4,10.1,12.2,19.9V75.3h2.8v24.4H466c-1.4-2.1-4.2-6.6-8.5-13.5
			c-1.8-2.9-3-4.9-3.7-6V99.7z"/>
		<rect x="474.1" y="75.3" class="st0" width="2.8" height="24.4"/>
		<path class="st0" d="M498.7,77.3l-1.2,1.7c-1.7-1.1-3.5-1.6-5.3-1.6c-2.5,0-4.4,1-5.8,3c-1.3,1.8-2,4.3-2,7.4
			c0,3.2,0.8,5.7,2.5,7.5c1.4,1.6,3.3,2.3,5.5,2.3c1.8,0,3.6-0.6,5.3-1.8l1.2,1.7c-2,1.7-4.3,2.6-6.8,2.6c-3.5,0-6.3-1.4-8.3-4.1
			c-1.6-2.2-2.5-5-2.5-8.3c0-3.7,1-6.8,3-9.3c1.9-2.4,4.3-3.6,7.3-3.6C494.4,74.8,496.7,75.6,498.7,77.3"/>
		<path class="st0" d="M502,97.7l1.2-1.7c1.9,1.1,3.9,1.6,6,1.6c1.6,0,2.9-0.4,3.8-1.1c0.9-0.8,1.4-1.8,1.4-3.2
			c0-2.4-1.6-4.1-4.7-5.2c-2.6-0.9-4.6-1.9-5.7-3s-1.8-2.5-1.8-4c0-1.9,0.7-3.4,2.2-4.6c1.4-1.1,3.1-1.6,5.4-1.6
			c2.4,0,4.6,0.7,6.6,2l-1.3,1.7c-1.6-0.8-3.3-1.3-5.1-1.3c-1.5,0-2.7,0.3-3.5,1c-0.9,0.6-1.3,1.5-1.3,2.6c0,1.7,1.3,3.1,4,4.1
			c3,1.2,5.2,2.3,6.4,3.6c1.2,1.2,1.8,2.8,1.8,4.8c0,2.2-0.9,4-2.6,5.3c-1.4,1.1-3.1,1.6-5.2,1.6C507.1,100.1,504.6,99.3,502,97.7"
			/>
	</g>
</g>
</svg>
